%TF.GenerationSoftware,KiCad,Pcbnew,9.0.3-9.0.3-0~ubuntu24.04.1*%
%TF.CreationDate,2025-07-24T18:13:32+02:00*%
%TF.ProjectId,ampli_audio,616d706c-695f-4617-9564-696f2e6b6963,rev?*%
%TF.SameCoordinates,Original*%
%TF.FileFunction,Copper,L2,Bot*%
%TF.FilePolarity,Positive*%
%FSLAX46Y46*%
G04 Gerber Fmt 4.6, Leading zero omitted, Abs format (unit mm)*
G04 Created by KiCad (PCBNEW 9.0.3-9.0.3-0~ubuntu24.04.1) date 2025-07-24 18:13:32*
%MOMM*%
%LPD*%
G01*
G04 APERTURE LIST*
G04 Aperture macros list*
%AMRoundRect*
0 Rectangle with rounded corners*
0 $1 Rounding radius*
0 $2 $3 $4 $5 $6 $7 $8 $9 X,Y pos of 4 corners*
0 Add a 4 corners polygon primitive as box body*
4,1,4,$2,$3,$4,$5,$6,$7,$8,$9,$2,$3,0*
0 Add four circle primitives for the rounded corners*
1,1,$1+$1,$2,$3*
1,1,$1+$1,$4,$5*
1,1,$1+$1,$6,$7*
1,1,$1+$1,$8,$9*
0 Add four rect primitives between the rounded corners*
20,1,$1+$1,$2,$3,$4,$5,0*
20,1,$1+$1,$4,$5,$6,$7,0*
20,1,$1+$1,$6,$7,$8,$9,0*
20,1,$1+$1,$8,$9,$2,$3,0*%
G04 Aperture macros list end*
%TA.AperFunction,ComponentPad*%
%ADD10C,1.600000*%
%TD*%
%TA.AperFunction,ComponentPad*%
%ADD11RoundRect,0.250000X0.550000X-0.950000X0.550000X0.950000X-0.550000X0.950000X-0.550000X-0.950000X0*%
%TD*%
%TA.AperFunction,ComponentPad*%
%ADD12O,1.600000X2.400000*%
%TD*%
%TA.AperFunction,ComponentPad*%
%ADD13RoundRect,0.250001X0.949999X-0.949999X0.949999X0.949999X-0.949999X0.949999X-0.949999X-0.949999X0*%
%TD*%
%TA.AperFunction,ComponentPad*%
%ADD14C,2.400000*%
%TD*%
%TA.AperFunction,ViaPad*%
%ADD15C,0.600000*%
%TD*%
G04 APERTURE END LIST*
D10*
%TO.P,C1,1*%
%TO.N,Net-(C1-Pad1)*%
X102500000Y-83000000D03*
%TO.P,C1,2*%
%TO.N,Net-(J2-Pin_1)*%
X102500000Y-80500000D03*
%TD*%
%TO.P,C3,1*%
%TO.N,Net-(C3-Pad1)*%
X93000000Y-80500000D03*
%TO.P,C3,2*%
%TO.N,GND*%
X95500000Y-80500000D03*
%TD*%
%TO.P,C7,1*%
%TO.N,Net-(C7-Pad1)*%
X89000000Y-93000000D03*
%TO.P,C7,2*%
%TO.N,Net-(C7-Pad2)*%
X89000000Y-90500000D03*
%TD*%
D11*
%TO.P,U1,1,GAIN*%
%TO.N,Net-(RV2-Pad2)*%
X92960000Y-94310000D03*
D12*
%TO.P,U1,2,-*%
%TO.N,GND*%
X95500000Y-94310000D03*
%TO.P,U1,3,+*%
%TO.N,Net-(U1-+)*%
X98040000Y-94310000D03*
%TO.P,U1,4,GND*%
%TO.N,GND*%
X100580000Y-94310000D03*
%TO.P,U1,5*%
%TO.N,Net-(C1-Pad1)*%
X100580000Y-86690000D03*
%TO.P,U1,6,V+*%
%TO.N,Net-(U1-V+)*%
X98040000Y-86690000D03*
%TO.P,U1,7,BYPASS*%
%TO.N,Net-(U1-BYPASS)*%
X95500000Y-86690000D03*
%TO.P,U1,8,GAIN*%
%TO.N,Net-(C7-Pad2)*%
X92960000Y-86690000D03*
%TD*%
D13*
%TO.P,J2,1,Pin_1*%
%TO.N,Net-(J2-Pin_1)*%
X108500000Y-84000000D03*
D14*
%TO.P,J2,2,Pin_2*%
%TO.N,GND*%
X108500000Y-80500000D03*
%TD*%
D15*
%TO.N,GND*%
X74500000Y-91000000D03*
X103000000Y-97000000D03*
X75000000Y-84500000D03*
X98500000Y-97000000D03*
X107000000Y-89500000D03*
X110500000Y-97000000D03*
X110000000Y-88500000D03*
%TD*%
%TA.AperFunction,Conductor*%
%TO.N,GND*%
G36*
X111943039Y-78019685D02*
G01*
X111988794Y-78072489D01*
X112000000Y-78124000D01*
X112000000Y-104376000D01*
X111980315Y-104443039D01*
X111927511Y-104488794D01*
X111876000Y-104500000D01*
X73124000Y-104500000D01*
X73056961Y-104480315D01*
X73011206Y-104427511D01*
X73000000Y-104376000D01*
X73000000Y-90397648D01*
X87699500Y-90397648D01*
X87699500Y-90602351D01*
X87731522Y-90804534D01*
X87794781Y-90999223D01*
X87887715Y-91181613D01*
X88008028Y-91347213D01*
X88152786Y-91491971D01*
X88318388Y-91612286D01*
X88371828Y-91639516D01*
X88422623Y-91687490D01*
X88439418Y-91755312D01*
X88416880Y-91821446D01*
X88371828Y-91860484D01*
X88318388Y-91887713D01*
X88152786Y-92008028D01*
X88008028Y-92152786D01*
X87887715Y-92318386D01*
X87794781Y-92500776D01*
X87731522Y-92695465D01*
X87699500Y-92897648D01*
X87699500Y-93102351D01*
X87731522Y-93304534D01*
X87794781Y-93499223D01*
X87887715Y-93681613D01*
X88008028Y-93847213D01*
X88152786Y-93991971D01*
X88252470Y-94064394D01*
X88318390Y-94112287D01*
X88434607Y-94171503D01*
X88500776Y-94205218D01*
X88500778Y-94205218D01*
X88500781Y-94205220D01*
X88605137Y-94239127D01*
X88695465Y-94268477D01*
X88796557Y-94284488D01*
X88897648Y-94300500D01*
X88897649Y-94300500D01*
X89102351Y-94300500D01*
X89102352Y-94300500D01*
X89304534Y-94268477D01*
X89499219Y-94205220D01*
X89681610Y-94112287D01*
X89774590Y-94044732D01*
X89847213Y-93991971D01*
X89847215Y-93991968D01*
X89847219Y-93991966D01*
X89991966Y-93847219D01*
X89991968Y-93847215D01*
X89991971Y-93847213D01*
X90044732Y-93774590D01*
X90112287Y-93681610D01*
X90205220Y-93499219D01*
X90266707Y-93309983D01*
X91659500Y-93309983D01*
X91659500Y-95310001D01*
X91659501Y-95310018D01*
X91670000Y-95412796D01*
X91670001Y-95412799D01*
X91686624Y-95462963D01*
X91725186Y-95579334D01*
X91817288Y-95728656D01*
X91941344Y-95852712D01*
X92090666Y-95944814D01*
X92257203Y-95999999D01*
X92359991Y-96010500D01*
X93560008Y-96010499D01*
X93662797Y-95999999D01*
X93829334Y-95944814D01*
X93978656Y-95852712D01*
X94102712Y-95728656D01*
X94194814Y-95579334D01*
X94222148Y-95496843D01*
X94261919Y-95439401D01*
X94326435Y-95412577D01*
X94395210Y-95424892D01*
X94440171Y-95462963D01*
X94508417Y-95556894D01*
X94508417Y-95556895D01*
X94653104Y-95701582D01*
X94818650Y-95821859D01*
X95000968Y-95914754D01*
X95195578Y-95977988D01*
X95250000Y-95986607D01*
X95250000Y-94625686D01*
X95254394Y-94630080D01*
X95345606Y-94682741D01*
X95447339Y-94710000D01*
X95552661Y-94710000D01*
X95654394Y-94682741D01*
X95745606Y-94630080D01*
X95750000Y-94625686D01*
X95750000Y-95986606D01*
X95804421Y-95977988D01*
X95999031Y-95914754D01*
X96181349Y-95821859D01*
X96346894Y-95701582D01*
X96346895Y-95701582D01*
X96491582Y-95556895D01*
X96491582Y-95556894D01*
X96611861Y-95391347D01*
X96659234Y-95298371D01*
X96707208Y-95247575D01*
X96775028Y-95230779D01*
X96841164Y-95253316D01*
X96880203Y-95298369D01*
X96927713Y-95391611D01*
X97048028Y-95557213D01*
X97192786Y-95701971D01*
X97347749Y-95814556D01*
X97358390Y-95822287D01*
X97474607Y-95881503D01*
X97540776Y-95915218D01*
X97540778Y-95915218D01*
X97540781Y-95915220D01*
X97631856Y-95944812D01*
X97735465Y-95978477D01*
X97836557Y-95994488D01*
X97937648Y-96010500D01*
X97937649Y-96010500D01*
X98142351Y-96010500D01*
X98142352Y-96010500D01*
X98344534Y-95978477D01*
X98539219Y-95915220D01*
X98721610Y-95822287D01*
X98850482Y-95728657D01*
X98887213Y-95701971D01*
X98887215Y-95701968D01*
X98887219Y-95701966D01*
X99031966Y-95557219D01*
X99031968Y-95557215D01*
X99031971Y-95557213D01*
X99152284Y-95391614D01*
X99152286Y-95391611D01*
X99152287Y-95391610D01*
X99199795Y-95298369D01*
X99247770Y-95247574D01*
X99315591Y-95230779D01*
X99381725Y-95253316D01*
X99420765Y-95298370D01*
X99468140Y-95391349D01*
X99588417Y-95556894D01*
X99588417Y-95556895D01*
X99733104Y-95701582D01*
X99898650Y-95821859D01*
X100080968Y-95914754D01*
X100275578Y-95977988D01*
X100330000Y-95986607D01*
X100330000Y-94625686D01*
X100334394Y-94630080D01*
X100425606Y-94682741D01*
X100527339Y-94710000D01*
X100632661Y-94710000D01*
X100734394Y-94682741D01*
X100825606Y-94630080D01*
X100830000Y-94625686D01*
X100830000Y-95986606D01*
X100884421Y-95977988D01*
X101079031Y-95914754D01*
X101261349Y-95821859D01*
X101426894Y-95701582D01*
X101426895Y-95701582D01*
X101571582Y-95556895D01*
X101571582Y-95556894D01*
X101691859Y-95391349D01*
X101784755Y-95209031D01*
X101847990Y-95014417D01*
X101880000Y-94812317D01*
X101880000Y-94560000D01*
X100895686Y-94560000D01*
X100900080Y-94555606D01*
X100952741Y-94464394D01*
X100980000Y-94362661D01*
X100980000Y-94257339D01*
X100952741Y-94155606D01*
X100900080Y-94064394D01*
X100895686Y-94060000D01*
X101880000Y-94060000D01*
X101880000Y-93807682D01*
X101847990Y-93605582D01*
X101784755Y-93410968D01*
X101691859Y-93228650D01*
X101571582Y-93063105D01*
X101571582Y-93063104D01*
X101426895Y-92918417D01*
X101261349Y-92798140D01*
X101079029Y-92705244D01*
X100884413Y-92642009D01*
X100830000Y-92633390D01*
X100830000Y-93994314D01*
X100825606Y-93989920D01*
X100734394Y-93937259D01*
X100632661Y-93910000D01*
X100527339Y-93910000D01*
X100425606Y-93937259D01*
X100334394Y-93989920D01*
X100330000Y-93994314D01*
X100330000Y-92633390D01*
X100275586Y-92642009D01*
X100080970Y-92705244D01*
X99898650Y-92798140D01*
X99733105Y-92918417D01*
X99733104Y-92918417D01*
X99588417Y-93063104D01*
X99588417Y-93063105D01*
X99468140Y-93228650D01*
X99420765Y-93321629D01*
X99372790Y-93372425D01*
X99304969Y-93389220D01*
X99238834Y-93366682D01*
X99199795Y-93321629D01*
X99152419Y-93228650D01*
X99152287Y-93228390D01*
X99135787Y-93205679D01*
X99031971Y-93062786D01*
X98887213Y-92918028D01*
X98721613Y-92797715D01*
X98721612Y-92797714D01*
X98721610Y-92797713D01*
X98661898Y-92767288D01*
X98539223Y-92704781D01*
X98344534Y-92641522D01*
X98169995Y-92613878D01*
X98142352Y-92609500D01*
X97937648Y-92609500D01*
X97913329Y-92613351D01*
X97735465Y-92641522D01*
X97540776Y-92704781D01*
X97358386Y-92797715D01*
X97192786Y-92918028D01*
X97048028Y-93062786D01*
X96927713Y-93228388D01*
X96880203Y-93321630D01*
X96832228Y-93372426D01*
X96764407Y-93389220D01*
X96698272Y-93366682D01*
X96659234Y-93321628D01*
X96611861Y-93228652D01*
X96491582Y-93063105D01*
X96491582Y-93063104D01*
X96346895Y-92918417D01*
X96181349Y-92798140D01*
X95999029Y-92705244D01*
X95804413Y-92642009D01*
X95750000Y-92633390D01*
X95750000Y-93994314D01*
X95745606Y-93989920D01*
X95654394Y-93937259D01*
X95552661Y-93910000D01*
X95447339Y-93910000D01*
X95345606Y-93937259D01*
X95254394Y-93989920D01*
X95250000Y-93994314D01*
X95250000Y-92633390D01*
X95195586Y-92642009D01*
X95000970Y-92705244D01*
X94818650Y-92798140D01*
X94653105Y-92918417D01*
X94653104Y-92918417D01*
X94508414Y-93063107D01*
X94440170Y-93157036D01*
X94384840Y-93199701D01*
X94315226Y-93205679D01*
X94253432Y-93173072D01*
X94222148Y-93123154D01*
X94194814Y-93040666D01*
X94102712Y-92891344D01*
X93978656Y-92767288D01*
X93829334Y-92675186D01*
X93662797Y-92620001D01*
X93662795Y-92620000D01*
X93560010Y-92609500D01*
X92359998Y-92609500D01*
X92359981Y-92609501D01*
X92257203Y-92620000D01*
X92257200Y-92620001D01*
X92090668Y-92675185D01*
X92090663Y-92675187D01*
X91941342Y-92767289D01*
X91817289Y-92891342D01*
X91725187Y-93040663D01*
X91725185Y-93040668D01*
X91704745Y-93102352D01*
X91670001Y-93207203D01*
X91670001Y-93207204D01*
X91670000Y-93207204D01*
X91659500Y-93309983D01*
X90266707Y-93309983D01*
X90268477Y-93304534D01*
X90300500Y-93102352D01*
X90300500Y-92897648D01*
X90270026Y-92705244D01*
X90268477Y-92695465D01*
X90205218Y-92500776D01*
X90171503Y-92434607D01*
X90112287Y-92318390D01*
X90104556Y-92307749D01*
X89991971Y-92152786D01*
X89847213Y-92008028D01*
X89681613Y-91887715D01*
X89681612Y-91887714D01*
X89681610Y-91887713D01*
X89628171Y-91860484D01*
X89577376Y-91812510D01*
X89560581Y-91744689D01*
X89583118Y-91678554D01*
X89628172Y-91639515D01*
X89681610Y-91612287D01*
X89774590Y-91544732D01*
X89847213Y-91491971D01*
X89847215Y-91491968D01*
X89847219Y-91491966D01*
X89991966Y-91347219D01*
X89991968Y-91347215D01*
X89991971Y-91347213D01*
X90044732Y-91274590D01*
X90112287Y-91181610D01*
X90205220Y-90999219D01*
X90268477Y-90804534D01*
X90300500Y-90602352D01*
X90300500Y-90397648D01*
X90268477Y-90195466D01*
X90205220Y-90000781D01*
X90205218Y-90000778D01*
X90205218Y-90000776D01*
X90171503Y-89934607D01*
X90112287Y-89818390D01*
X90104556Y-89807749D01*
X89991971Y-89652786D01*
X89847213Y-89508028D01*
X89681613Y-89387715D01*
X89681612Y-89387714D01*
X89681610Y-89387713D01*
X89624653Y-89358691D01*
X89499223Y-89294781D01*
X89304534Y-89231522D01*
X89129995Y-89203878D01*
X89102352Y-89199500D01*
X88897648Y-89199500D01*
X88873329Y-89203351D01*
X88695465Y-89231522D01*
X88500776Y-89294781D01*
X88318386Y-89387715D01*
X88152786Y-89508028D01*
X88008028Y-89652786D01*
X87887715Y-89818386D01*
X87794781Y-90000776D01*
X87731522Y-90195465D01*
X87699500Y-90397648D01*
X73000000Y-90397648D01*
X73000000Y-86187648D01*
X91659500Y-86187648D01*
X91659500Y-87192351D01*
X91691522Y-87394534D01*
X91754781Y-87589223D01*
X91847715Y-87771613D01*
X91968028Y-87937213D01*
X92112786Y-88081971D01*
X92267749Y-88194556D01*
X92278390Y-88202287D01*
X92394607Y-88261503D01*
X92460776Y-88295218D01*
X92460778Y-88295218D01*
X92460781Y-88295220D01*
X92565137Y-88329127D01*
X92655465Y-88358477D01*
X92756557Y-88374488D01*
X92857648Y-88390500D01*
X92857649Y-88390500D01*
X93062351Y-88390500D01*
X93062352Y-88390500D01*
X93264534Y-88358477D01*
X93459219Y-88295220D01*
X93641610Y-88202287D01*
X93734590Y-88134732D01*
X93807213Y-88081971D01*
X93807215Y-88081968D01*
X93807219Y-88081966D01*
X93951966Y-87937219D01*
X93951968Y-87937215D01*
X93951971Y-87937213D01*
X94072284Y-87771614D01*
X94072285Y-87771613D01*
X94072287Y-87771610D01*
X94119516Y-87678917D01*
X94167489Y-87628123D01*
X94235310Y-87611328D01*
X94301445Y-87633865D01*
X94340485Y-87678919D01*
X94387715Y-87771614D01*
X94508028Y-87937213D01*
X94652786Y-88081971D01*
X94807749Y-88194556D01*
X94818390Y-88202287D01*
X94934607Y-88261503D01*
X95000776Y-88295218D01*
X95000778Y-88295218D01*
X95000781Y-88295220D01*
X95105137Y-88329127D01*
X95195465Y-88358477D01*
X95296557Y-88374488D01*
X95397648Y-88390500D01*
X95397649Y-88390500D01*
X95602351Y-88390500D01*
X95602352Y-88390500D01*
X95804534Y-88358477D01*
X95999219Y-88295220D01*
X96181610Y-88202287D01*
X96274590Y-88134732D01*
X96347213Y-88081971D01*
X96347215Y-88081968D01*
X96347219Y-88081966D01*
X96491966Y-87937219D01*
X96491968Y-87937215D01*
X96491971Y-87937213D01*
X96612284Y-87771614D01*
X96612285Y-87771613D01*
X96612287Y-87771610D01*
X96659516Y-87678917D01*
X96707489Y-87628123D01*
X96775310Y-87611328D01*
X96841445Y-87633865D01*
X96880485Y-87678919D01*
X96927715Y-87771614D01*
X97048028Y-87937213D01*
X97192786Y-88081971D01*
X97347749Y-88194556D01*
X97358390Y-88202287D01*
X97474607Y-88261503D01*
X97540776Y-88295218D01*
X97540778Y-88295218D01*
X97540781Y-88295220D01*
X97645137Y-88329127D01*
X97735465Y-88358477D01*
X97836557Y-88374488D01*
X97937648Y-88390500D01*
X97937649Y-88390500D01*
X98142351Y-88390500D01*
X98142352Y-88390500D01*
X98344534Y-88358477D01*
X98539219Y-88295220D01*
X98721610Y-88202287D01*
X98814590Y-88134732D01*
X98887213Y-88081971D01*
X98887215Y-88081968D01*
X98887219Y-88081966D01*
X99031966Y-87937219D01*
X99031968Y-87937215D01*
X99031971Y-87937213D01*
X99152284Y-87771614D01*
X99152285Y-87771613D01*
X99152287Y-87771610D01*
X99199516Y-87678917D01*
X99247489Y-87628123D01*
X99315310Y-87611328D01*
X99381445Y-87633865D01*
X99420485Y-87678919D01*
X99467715Y-87771614D01*
X99588028Y-87937213D01*
X99732786Y-88081971D01*
X99887749Y-88194556D01*
X99898390Y-88202287D01*
X100014607Y-88261503D01*
X100080776Y-88295218D01*
X100080778Y-88295218D01*
X100080781Y-88295220D01*
X100185137Y-88329127D01*
X100275465Y-88358477D01*
X100376557Y-88374488D01*
X100477648Y-88390500D01*
X100477649Y-88390500D01*
X100682351Y-88390500D01*
X100682352Y-88390500D01*
X100884534Y-88358477D01*
X101079219Y-88295220D01*
X101261610Y-88202287D01*
X101354590Y-88134732D01*
X101427213Y-88081971D01*
X101427215Y-88081968D01*
X101427219Y-88081966D01*
X101571966Y-87937219D01*
X101571968Y-87937215D01*
X101571971Y-87937213D01*
X101624732Y-87864590D01*
X101692287Y-87771610D01*
X101785220Y-87589219D01*
X101848477Y-87394534D01*
X101880500Y-87192352D01*
X101880500Y-86187648D01*
X101848477Y-85985466D01*
X101785220Y-85790781D01*
X101785218Y-85790778D01*
X101785218Y-85790776D01*
X101733868Y-85689998D01*
X101692287Y-85608390D01*
X101684556Y-85597749D01*
X101571971Y-85442786D01*
X101427213Y-85298028D01*
X101261613Y-85177715D01*
X101261612Y-85177714D01*
X101261610Y-85177713D01*
X101204653Y-85148691D01*
X101079223Y-85084781D01*
X100884534Y-85021522D01*
X100709995Y-84993878D01*
X100682352Y-84989500D01*
X100477648Y-84989500D01*
X100453329Y-84993351D01*
X100275465Y-85021522D01*
X100080776Y-85084781D01*
X99898386Y-85177715D01*
X99732786Y-85298028D01*
X99588028Y-85442786D01*
X99467715Y-85608386D01*
X99420485Y-85701080D01*
X99372510Y-85751876D01*
X99304689Y-85768671D01*
X99238554Y-85746134D01*
X99199515Y-85701080D01*
X99193868Y-85689998D01*
X99152287Y-85608390D01*
X99144556Y-85597749D01*
X99031971Y-85442786D01*
X98887213Y-85298028D01*
X98721613Y-85177715D01*
X98721612Y-85177714D01*
X98721610Y-85177713D01*
X98664653Y-85148691D01*
X98539223Y-85084781D01*
X98344534Y-85021522D01*
X98169995Y-84993878D01*
X98142352Y-84989500D01*
X97937648Y-84989500D01*
X97913329Y-84993351D01*
X97735465Y-85021522D01*
X97540776Y-85084781D01*
X97358386Y-85177715D01*
X97192786Y-85298028D01*
X97048028Y-85442786D01*
X96927715Y-85608386D01*
X96880485Y-85701080D01*
X96832510Y-85751876D01*
X96764689Y-85768671D01*
X96698554Y-85746134D01*
X96659515Y-85701080D01*
X96653868Y-85689998D01*
X96612287Y-85608390D01*
X96604556Y-85597749D01*
X96491971Y-85442786D01*
X96347213Y-85298028D01*
X96181613Y-85177715D01*
X96181612Y-85177714D01*
X96181610Y-85177713D01*
X96124653Y-85148691D01*
X95999223Y-85084781D01*
X95804534Y-85021522D01*
X95629995Y-84993878D01*
X95602352Y-84989500D01*
X95397648Y-84989500D01*
X95373329Y-84993351D01*
X95195465Y-85021522D01*
X95000776Y-85084781D01*
X94818386Y-85177715D01*
X94652786Y-85298028D01*
X94508028Y-85442786D01*
X94387715Y-85608386D01*
X94340485Y-85701080D01*
X94292510Y-85751876D01*
X94224689Y-85768671D01*
X94158554Y-85746134D01*
X94119515Y-85701080D01*
X94113868Y-85689998D01*
X94072287Y-85608390D01*
X94064556Y-85597749D01*
X93951971Y-85442786D01*
X93807213Y-85298028D01*
X93641613Y-85177715D01*
X93641612Y-85177714D01*
X93641610Y-85177713D01*
X93584653Y-85148691D01*
X93459223Y-85084781D01*
X93264534Y-85021522D01*
X93089995Y-84993878D01*
X93062352Y-84989500D01*
X92857648Y-84989500D01*
X92833329Y-84993351D01*
X92655465Y-85021522D01*
X92460776Y-85084781D01*
X92278386Y-85177715D01*
X92112786Y-85298028D01*
X91968028Y-85442786D01*
X91847715Y-85608386D01*
X91754781Y-85790776D01*
X91691522Y-85985465D01*
X91659500Y-86187648D01*
X73000000Y-86187648D01*
X73000000Y-82696530D01*
X76549500Y-82696530D01*
X76549500Y-82903469D01*
X76589868Y-83106412D01*
X76589870Y-83106420D01*
X76669059Y-83297598D01*
X76726541Y-83383626D01*
X76784024Y-83469657D01*
X76930342Y-83615975D01*
X76930345Y-83615977D01*
X77102402Y-83730941D01*
X77293580Y-83810130D01*
X77480010Y-83847213D01*
X77496530Y-83850499D01*
X77496534Y-83850500D01*
X77496535Y-83850500D01*
X77703466Y-83850500D01*
X77703467Y-83850499D01*
X77906420Y-83810130D01*
X78097598Y-83730941D01*
X78269655Y-83615977D01*
X78415977Y-83469655D01*
X78530941Y-83297598D01*
X78610130Y-83106420D01*
X78650500Y-82903465D01*
X78650500Y-82696535D01*
X78650499Y-82696530D01*
X83549500Y-82696530D01*
X83549500Y-82903469D01*
X83589868Y-83106412D01*
X83589870Y-83106420D01*
X83669059Y-83297598D01*
X83726541Y-83383626D01*
X83784024Y-83469657D01*
X83930342Y-83615975D01*
X83930345Y-83615977D01*
X84102402Y-83730941D01*
X84293580Y-83810130D01*
X84480010Y-83847213D01*
X84496530Y-83850499D01*
X84496534Y-83850500D01*
X84496535Y-83850500D01*
X84703466Y-83850500D01*
X84703467Y-83850499D01*
X84906420Y-83810130D01*
X85097598Y-83730941D01*
X85269655Y-83615977D01*
X85415977Y-83469655D01*
X85530941Y-83297598D01*
X85610130Y-83106420D01*
X85650500Y-82903465D01*
X85650500Y-82696535D01*
X85610130Y-82493580D01*
X85530941Y-82302402D01*
X85415977Y-82130345D01*
X85415975Y-82130342D01*
X85269657Y-81984024D01*
X85125516Y-81887713D01*
X85097598Y-81869059D01*
X85090109Y-81865957D01*
X84906420Y-81789870D01*
X84906412Y-81789868D01*
X84703469Y-81749500D01*
X84703465Y-81749500D01*
X84496535Y-81749500D01*
X84496530Y-81749500D01*
X84293587Y-81789868D01*
X84293579Y-81789870D01*
X84102403Y-81869058D01*
X83930342Y-81984024D01*
X83784024Y-82130342D01*
X83669058Y-82302403D01*
X83589870Y-82493579D01*
X83589868Y-82493587D01*
X83549500Y-82696530D01*
X78650499Y-82696530D01*
X78610130Y-82493580D01*
X78530941Y-82302402D01*
X78415977Y-82130345D01*
X78415975Y-82130342D01*
X78269657Y-81984024D01*
X78125516Y-81887713D01*
X78097598Y-81869059D01*
X78090109Y-81865957D01*
X77906420Y-81789870D01*
X77906412Y-81789868D01*
X77703469Y-81749500D01*
X77703465Y-81749500D01*
X77496535Y-81749500D01*
X77496530Y-81749500D01*
X77293587Y-81789868D01*
X77293579Y-81789870D01*
X77102403Y-81869058D01*
X76930342Y-81984024D01*
X76784024Y-82130342D01*
X76669058Y-82302403D01*
X76589870Y-82493579D01*
X76589868Y-82493587D01*
X76549500Y-82696530D01*
X73000000Y-82696530D01*
X73000000Y-80397648D01*
X91699500Y-80397648D01*
X91699500Y-80602351D01*
X91731522Y-80804534D01*
X91794781Y-80999223D01*
X91858691Y-81124653D01*
X91887585Y-81181359D01*
X91887715Y-81181613D01*
X92008028Y-81347213D01*
X92152786Y-81491971D01*
X92273226Y-81579474D01*
X92318390Y-81612287D01*
X92434607Y-81671503D01*
X92500776Y-81705218D01*
X92500778Y-81705218D01*
X92500781Y-81705220D01*
X92605137Y-81739127D01*
X92695465Y-81768477D01*
X92796557Y-81784488D01*
X92897648Y-81800500D01*
X92897649Y-81800500D01*
X93102351Y-81800500D01*
X93102352Y-81800500D01*
X93304534Y-81768477D01*
X93499219Y-81705220D01*
X93681610Y-81612287D01*
X93774590Y-81544732D01*
X93847213Y-81491971D01*
X93847215Y-81491968D01*
X93847219Y-81491966D01*
X93991966Y-81347219D01*
X93991968Y-81347215D01*
X93991971Y-81347213D01*
X94112286Y-81181611D01*
X94112415Y-81181359D01*
X94139795Y-81127621D01*
X94187769Y-81076826D01*
X94255589Y-81060030D01*
X94321725Y-81082567D01*
X94360765Y-81127621D01*
X94388141Y-81181350D01*
X94388147Y-81181359D01*
X94420523Y-81225921D01*
X94420524Y-81225922D01*
X95100000Y-80546446D01*
X95100000Y-80552661D01*
X95127259Y-80654394D01*
X95179920Y-80745606D01*
X95254394Y-80820080D01*
X95345606Y-80872741D01*
X95447339Y-80900000D01*
X95453553Y-80900000D01*
X94774076Y-81579474D01*
X94818650Y-81611859D01*
X95000968Y-81704755D01*
X95195582Y-81767990D01*
X95397683Y-81800000D01*
X95602317Y-81800000D01*
X95804417Y-81767990D01*
X95999031Y-81704755D01*
X96181349Y-81611859D01*
X96225921Y-81579474D01*
X95546447Y-80900000D01*
X95552661Y-80900000D01*
X95654394Y-80872741D01*
X95745606Y-80820080D01*
X95820080Y-80745606D01*
X95872741Y-80654394D01*
X95900000Y-80552661D01*
X95900000Y-80546447D01*
X96579474Y-81225921D01*
X96611859Y-81181349D01*
X96704755Y-80999031D01*
X96767990Y-80804417D01*
X96800000Y-80602317D01*
X96800000Y-80397682D01*
X96799995Y-80397648D01*
X101199500Y-80397648D01*
X101199500Y-80602351D01*
X101231522Y-80804534D01*
X101294781Y-80999223D01*
X101358691Y-81124653D01*
X101387585Y-81181359D01*
X101387715Y-81181613D01*
X101508028Y-81347213D01*
X101652786Y-81491971D01*
X101818388Y-81612286D01*
X101871828Y-81639516D01*
X101922623Y-81687490D01*
X101939418Y-81755312D01*
X101916880Y-81821446D01*
X101871828Y-81860484D01*
X101818388Y-81887713D01*
X101652786Y-82008028D01*
X101508028Y-82152786D01*
X101387715Y-82318386D01*
X101294781Y-82500776D01*
X101231522Y-82695465D01*
X101199500Y-82897648D01*
X101199500Y-83102351D01*
X101231522Y-83304534D01*
X101294781Y-83499223D01*
X101387715Y-83681613D01*
X101508028Y-83847213D01*
X101652786Y-83991971D01*
X101807749Y-84104556D01*
X101818390Y-84112287D01*
X101934607Y-84171503D01*
X102000776Y-84205218D01*
X102000778Y-84205218D01*
X102000781Y-84205220D01*
X102105137Y-84239127D01*
X102195465Y-84268477D01*
X102296557Y-84284488D01*
X102397648Y-84300500D01*
X102397649Y-84300500D01*
X102602351Y-84300500D01*
X102602352Y-84300500D01*
X102804534Y-84268477D01*
X102999219Y-84205220D01*
X103181610Y-84112287D01*
X103274590Y-84044732D01*
X103347213Y-83991971D01*
X103347215Y-83991968D01*
X103347219Y-83991966D01*
X103491966Y-83847219D01*
X103491968Y-83847215D01*
X103491971Y-83847213D01*
X103576446Y-83730941D01*
X103612287Y-83681610D01*
X103705220Y-83499219D01*
X103768477Y-83304534D01*
X103800500Y-83102352D01*
X103800500Y-82999984D01*
X106799500Y-82999984D01*
X106799500Y-85000015D01*
X106810000Y-85102795D01*
X106810001Y-85102796D01*
X106865186Y-85269335D01*
X106865187Y-85269337D01*
X106957286Y-85418651D01*
X106957289Y-85418655D01*
X107081344Y-85542710D01*
X107081348Y-85542713D01*
X107230662Y-85634812D01*
X107230664Y-85634813D01*
X107230666Y-85634814D01*
X107397203Y-85689999D01*
X107499992Y-85700500D01*
X107499997Y-85700500D01*
X109500003Y-85700500D01*
X109500008Y-85700500D01*
X109602797Y-85689999D01*
X109769334Y-85634814D01*
X109918655Y-85542711D01*
X110042711Y-85418655D01*
X110134814Y-85269334D01*
X110189999Y-85102797D01*
X110200500Y-85000008D01*
X110200500Y-82999992D01*
X110189999Y-82897203D01*
X110134814Y-82730666D01*
X110113102Y-82695466D01*
X110042713Y-82581348D01*
X110042710Y-82581344D01*
X109918655Y-82457289D01*
X109918651Y-82457286D01*
X109769337Y-82365187D01*
X109769335Y-82365186D01*
X109628101Y-82318386D01*
X109602797Y-82310001D01*
X109602795Y-82310000D01*
X109500015Y-82299500D01*
X109500008Y-82299500D01*
X109221326Y-82299500D01*
X109154287Y-82279815D01*
X109108532Y-82227011D01*
X109098588Y-82157853D01*
X109127613Y-82094297D01*
X109173873Y-82060939D01*
X109253502Y-82027954D01*
X109253514Y-82027949D01*
X109446498Y-81916530D01*
X109512403Y-81865957D01*
X109512404Y-81865956D01*
X108711059Y-81064612D01*
X108731591Y-81059111D01*
X108868408Y-80980119D01*
X108980119Y-80868408D01*
X109059111Y-80731591D01*
X109064612Y-80711059D01*
X109865956Y-81512404D01*
X109865957Y-81512403D01*
X109916530Y-81446498D01*
X110027949Y-81253514D01*
X110027954Y-81253502D01*
X110113236Y-81047618D01*
X110170911Y-80832367D01*
X110170914Y-80832354D01*
X110200000Y-80611424D01*
X110200000Y-80388575D01*
X110170914Y-80167645D01*
X110170911Y-80167632D01*
X110113236Y-79952381D01*
X110027954Y-79746497D01*
X110027949Y-79746485D01*
X109916533Y-79553507D01*
X109865956Y-79487595D01*
X109865955Y-79487595D01*
X109064612Y-80288939D01*
X109059111Y-80268409D01*
X108980119Y-80131592D01*
X108868408Y-80019881D01*
X108731591Y-79940889D01*
X108711058Y-79935387D01*
X109512403Y-79134043D01*
X109512403Y-79134040D01*
X109446504Y-79083473D01*
X109446491Y-79083464D01*
X109253520Y-78972054D01*
X109253502Y-78972045D01*
X109047618Y-78886763D01*
X108832367Y-78829088D01*
X108832354Y-78829085D01*
X108611425Y-78800000D01*
X108388575Y-78800000D01*
X108167645Y-78829085D01*
X108167632Y-78829088D01*
X107952381Y-78886763D01*
X107746497Y-78972045D01*
X107746479Y-78972054D01*
X107553511Y-79083462D01*
X107487595Y-79134042D01*
X108288941Y-79935387D01*
X108268409Y-79940889D01*
X108131592Y-80019881D01*
X108019881Y-80131592D01*
X107940889Y-80268409D01*
X107935387Y-80288940D01*
X107134042Y-79487595D01*
X107083462Y-79553511D01*
X106972054Y-79746479D01*
X106972045Y-79746497D01*
X106886763Y-79952381D01*
X106829088Y-80167632D01*
X106829085Y-80167645D01*
X106800000Y-80388575D01*
X106800000Y-80611424D01*
X106829085Y-80832354D01*
X106829088Y-80832367D01*
X106886763Y-81047618D01*
X106972045Y-81253502D01*
X106972054Y-81253520D01*
X107083464Y-81446491D01*
X107083473Y-81446504D01*
X107134040Y-81512403D01*
X107134043Y-81512403D01*
X107935387Y-80711059D01*
X107940889Y-80731591D01*
X108019881Y-80868408D01*
X108131592Y-80980119D01*
X108268409Y-81059111D01*
X108288940Y-81064612D01*
X107487595Y-81865955D01*
X107487595Y-81865956D01*
X107553507Y-81916533D01*
X107746485Y-82027949D01*
X107746497Y-82027954D01*
X107826127Y-82060939D01*
X107880531Y-82104780D01*
X107902595Y-82171075D01*
X107885315Y-82238774D01*
X107834178Y-82286384D01*
X107778674Y-82299500D01*
X107499984Y-82299500D01*
X107397204Y-82310000D01*
X107397203Y-82310001D01*
X107230664Y-82365186D01*
X107230662Y-82365187D01*
X107081348Y-82457286D01*
X107081344Y-82457289D01*
X106957289Y-82581344D01*
X106957286Y-82581348D01*
X106865187Y-82730662D01*
X106865186Y-82730664D01*
X106810001Y-82897203D01*
X106810000Y-82897204D01*
X106799500Y-82999984D01*
X103800500Y-82999984D01*
X103800500Y-82897648D01*
X103768477Y-82695466D01*
X103705220Y-82500781D01*
X103705218Y-82500778D01*
X103705218Y-82500776D01*
X103636131Y-82365187D01*
X103612287Y-82318390D01*
X103598563Y-82299500D01*
X103491971Y-82152786D01*
X103347213Y-82008028D01*
X103181613Y-81887715D01*
X103181612Y-81887714D01*
X103181610Y-81887713D01*
X103128171Y-81860484D01*
X103077376Y-81812510D01*
X103060581Y-81744689D01*
X103083118Y-81678554D01*
X103128172Y-81639515D01*
X103181610Y-81612287D01*
X103274590Y-81544732D01*
X103347213Y-81491971D01*
X103347215Y-81491968D01*
X103347219Y-81491966D01*
X103491966Y-81347219D01*
X103491968Y-81347215D01*
X103491971Y-81347213D01*
X103560055Y-81253502D01*
X103612287Y-81181610D01*
X103705220Y-80999219D01*
X103768477Y-80804534D01*
X103800500Y-80602352D01*
X103800500Y-80397648D01*
X103774503Y-80233514D01*
X103768477Y-80195465D01*
X103711426Y-80019881D01*
X103705220Y-80000781D01*
X103705218Y-80000778D01*
X103705218Y-80000776D01*
X103612419Y-79818650D01*
X103612287Y-79818390D01*
X103580092Y-79774077D01*
X103491971Y-79652786D01*
X103347213Y-79508028D01*
X103181613Y-79387715D01*
X103181612Y-79387714D01*
X103181610Y-79387713D01*
X103124653Y-79358691D01*
X102999223Y-79294781D01*
X102804534Y-79231522D01*
X102629995Y-79203878D01*
X102602352Y-79199500D01*
X102397648Y-79199500D01*
X102373329Y-79203351D01*
X102195465Y-79231522D01*
X102000776Y-79294781D01*
X101818386Y-79387715D01*
X101652786Y-79508028D01*
X101508028Y-79652786D01*
X101387715Y-79818386D01*
X101294781Y-80000776D01*
X101231522Y-80195465D01*
X101199500Y-80397648D01*
X96799995Y-80397648D01*
X96767990Y-80195582D01*
X96704755Y-80000968D01*
X96611859Y-79818650D01*
X96579474Y-79774077D01*
X96579474Y-79774076D01*
X95900000Y-80453551D01*
X95900000Y-80447339D01*
X95872741Y-80345606D01*
X95820080Y-80254394D01*
X95745606Y-80179920D01*
X95654394Y-80127259D01*
X95552661Y-80100000D01*
X95546446Y-80100000D01*
X96225922Y-79420524D01*
X96225921Y-79420523D01*
X96181359Y-79388147D01*
X96181350Y-79388141D01*
X95999031Y-79295244D01*
X95804417Y-79232009D01*
X95602317Y-79200000D01*
X95397683Y-79200000D01*
X95195582Y-79232009D01*
X95000968Y-79295244D01*
X94818644Y-79388143D01*
X94774077Y-79420523D01*
X94774077Y-79420524D01*
X95453554Y-80100000D01*
X95447339Y-80100000D01*
X95345606Y-80127259D01*
X95254394Y-80179920D01*
X95179920Y-80254394D01*
X95127259Y-80345606D01*
X95100000Y-80447339D01*
X95100000Y-80453553D01*
X94420524Y-79774077D01*
X94420523Y-79774077D01*
X94388143Y-79818644D01*
X94360765Y-79872378D01*
X94312790Y-79923174D01*
X94244969Y-79939969D01*
X94178834Y-79917431D01*
X94139795Y-79872378D01*
X94112284Y-79818385D01*
X93991971Y-79652786D01*
X93847213Y-79508028D01*
X93681613Y-79387715D01*
X93681612Y-79387714D01*
X93681610Y-79387713D01*
X93624653Y-79358691D01*
X93499223Y-79294781D01*
X93304534Y-79231522D01*
X93129995Y-79203878D01*
X93102352Y-79199500D01*
X92897648Y-79199500D01*
X92873329Y-79203351D01*
X92695465Y-79231522D01*
X92500776Y-79294781D01*
X92318386Y-79387715D01*
X92152786Y-79508028D01*
X92008028Y-79652786D01*
X91887715Y-79818386D01*
X91794781Y-80000776D01*
X91731522Y-80195465D01*
X91699500Y-80397648D01*
X73000000Y-80397648D01*
X73000000Y-78124000D01*
X73019685Y-78056961D01*
X73072489Y-78011206D01*
X73124000Y-78000000D01*
X111876000Y-78000000D01*
X111943039Y-78019685D01*
G37*
%TD.AperFunction*%
%TD*%
M02*
