%TF.GenerationSoftware,KiCad,Pcbnew,9.0.3-9.0.3-0~ubuntu24.04.1*%
%TF.CreationDate,2025-07-24T18:13:32+02:00*%
%TF.ProjectId,ampli_audio,616d706c-695f-4617-9564-696f2e6b6963,rev?*%
%TF.SameCoordinates,Original*%
%TF.FileFunction,Copper,L1,Top*%
%TF.FilePolarity,Positive*%
%FSLAX46Y46*%
G04 Gerber Fmt 4.6, Leading zero omitted, Abs format (unit mm)*
G04 Created by KiCad (PCBNEW 9.0.3-9.0.3-0~ubuntu24.04.1) date 2025-07-24 18:13:32*
%MOMM*%
%LPD*%
G01*
G04 APERTURE LIST*
G04 Aperture macros list*
%AMRoundRect*
0 Rectangle with rounded corners*
0 $1 Rounding radius*
0 $2 $3 $4 $5 $6 $7 $8 $9 X,Y pos of 4 corners*
0 Add a 4 corners polygon primitive as box body*
4,1,4,$2,$3,$4,$5,$6,$7,$8,$9,$2,$3,0*
0 Add four circle primitives for the rounded corners*
1,1,$1+$1,$2,$3*
1,1,$1+$1,$4,$5*
1,1,$1+$1,$6,$7*
1,1,$1+$1,$8,$9*
0 Add four rect primitives between the rounded corners*
20,1,$1+$1,$2,$3,$4,$5,0*
20,1,$1+$1,$4,$5,$6,$7,0*
20,1,$1+$1,$6,$7,$8,$9,0*
20,1,$1+$1,$8,$9,$2,$3,0*%
G04 Aperture macros list end*
%TA.AperFunction,SMDPad,CuDef*%
%ADD10R,2.200000X2.800000*%
%TD*%
%TA.AperFunction,SMDPad,CuDef*%
%ADD11R,2.800000X2.800000*%
%TD*%
%TA.AperFunction,SMDPad,CuDef*%
%ADD12RoundRect,0.237500X0.250000X0.237500X-0.250000X0.237500X-0.250000X-0.237500X0.250000X-0.237500X0*%
%TD*%
%TA.AperFunction,SMDPad,CuDef*%
%ADD13RoundRect,0.250000X-1.000000X-0.750000X1.000000X-0.750000X1.000000X0.750000X-1.000000X0.750000X0*%
%TD*%
%TA.AperFunction,SMDPad,CuDef*%
%ADD14RoundRect,0.237500X-0.300000X-0.237500X0.300000X-0.237500X0.300000X0.237500X-0.300000X0.237500X0*%
%TD*%
%TA.AperFunction,ComponentPad*%
%ADD15C,1.600000*%
%TD*%
%TA.AperFunction,SMDPad,CuDef*%
%ADD16RoundRect,0.237500X0.300000X0.237500X-0.300000X0.237500X-0.300000X-0.237500X0.300000X-0.237500X0*%
%TD*%
%TA.AperFunction,SMDPad,CuDef*%
%ADD17RoundRect,0.100000X0.295000X-0.100000X0.295000X0.100000X-0.295000X0.100000X-0.295000X-0.100000X0*%
%TD*%
%TA.AperFunction,SMDPad,CuDef*%
%ADD18RoundRect,0.162500X0.637500X-0.162500X0.637500X0.162500X-0.637500X0.162500X-0.637500X-0.162500X0*%
%TD*%
%TA.AperFunction,SMDPad,CuDef*%
%ADD19RoundRect,0.237500X-0.237500X0.250000X-0.237500X-0.250000X0.237500X-0.250000X0.237500X0.250000X0*%
%TD*%
%TA.AperFunction,SMDPad,CuDef*%
%ADD20RoundRect,0.237500X0.237500X-0.300000X0.237500X0.300000X-0.237500X0.300000X-0.237500X-0.300000X0*%
%TD*%
%TA.AperFunction,SMDPad,CuDef*%
%ADD21RoundRect,0.237500X-0.250000X-0.237500X0.250000X-0.237500X0.250000X0.237500X-0.250000X0.237500X0*%
%TD*%
%TA.AperFunction,SMDPad,CuDef*%
%ADD22RoundRect,0.100000X0.217500X0.100000X-0.217500X0.100000X-0.217500X-0.100000X0.217500X-0.100000X0*%
%TD*%
%TA.AperFunction,ComponentPad*%
%ADD23RoundRect,0.250000X0.550000X-0.950000X0.550000X0.950000X-0.550000X0.950000X-0.550000X-0.950000X0*%
%TD*%
%TA.AperFunction,ComponentPad*%
%ADD24O,1.600000X2.400000*%
%TD*%
%TA.AperFunction,ComponentPad*%
%ADD25RoundRect,0.250001X0.949999X-0.949999X0.949999X0.949999X-0.949999X0.949999X-0.949999X-0.949999X0*%
%TD*%
%TA.AperFunction,ComponentPad*%
%ADD26C,2.400000*%
%TD*%
%TA.AperFunction,ViaPad*%
%ADD27C,0.600000*%
%TD*%
%TA.AperFunction,Conductor*%
%ADD28C,0.200000*%
%TD*%
G04 APERTURE END LIST*
D10*
%TO.P,J1,R*%
%TO.N,unconnected-(J1-PadR)*%
X78500000Y-79100000D03*
%TO.P,J1,S*%
%TO.N,GND*%
X76500000Y-86500000D03*
D11*
%TO.P,J1,T*%
%TO.N,Net-(J1-PadT)*%
X85900000Y-86500000D03*
%TD*%
D12*
%TO.P,R1,1*%
%TO.N,Net-(C2-Pad2)*%
X99825000Y-80500000D03*
%TO.P,R1,2*%
%TO.N,GND*%
X98000000Y-80500000D03*
%TD*%
D13*
%TO.P,RV1,1,1*%
%TO.N,Net-(J1-PadT)*%
X76500000Y-95150000D03*
%TO.P,RV1,2,2*%
%TO.N,Net-(U1-+)*%
X85150000Y-93000000D03*
%TO.P,RV1,3,3*%
%TO.N,GND*%
X76500000Y-90850000D03*
%TD*%
D14*
%TO.P,C6,1*%
%TO.N,GND*%
X99775000Y-97000000D03*
%TO.P,C6,2*%
X101500000Y-97000000D03*
%TD*%
D15*
%TO.P,C1,1*%
%TO.N,Net-(C1-Pad1)*%
X102500000Y-83000000D03*
%TO.P,C1,2*%
%TO.N,Net-(J2-Pin_1)*%
X102500000Y-80500000D03*
%TD*%
D16*
%TO.P,C2,1*%
%TO.N,Net-(C1-Pad1)*%
X99725000Y-83000000D03*
%TO.P,C2,2*%
%TO.N,Net-(C2-Pad2)*%
X98000000Y-83000000D03*
%TD*%
D13*
%TO.P,RV2,1,1*%
%TO.N,Net-(C7-Pad1)*%
X76500000Y-102800000D03*
%TO.P,RV2,2,2*%
%TO.N,Net-(RV2-Pad2)*%
X85150000Y-100650000D03*
%TO.P,RV2,3,3*%
%TO.N,unconnected-(RV2-Pad3)*%
X76500000Y-98500000D03*
%TD*%
D17*
%TO.P,P1,A1,GND*%
%TO.N,GND*%
X107500000Y-90500000D03*
%TO.P,P1,A4,VBUS*%
%TO.N,Net-(U1-V+)*%
X107500000Y-91300000D03*
%TO.P,P1,A5,CC*%
%TO.N,Net-(P1-CC)*%
X107500000Y-92100000D03*
%TO.P,P1,A6,D+*%
%TO.N,unconnected-(P1-D+-PadA6)*%
X107500000Y-92900000D03*
%TO.P,P1,A7,D-*%
%TO.N,unconnected-(P1-D--PadA7)*%
X107500000Y-93700000D03*
%TO.P,P1,A8*%
%TO.N,N/C*%
X107500000Y-94500000D03*
%TO.P,P1,A9,VBUS*%
%TO.N,Net-(U1-V+)*%
X107500000Y-95300000D03*
%TO.P,P1,A12,GND*%
%TO.N,GND*%
X107500000Y-96100000D03*
%TO.P,P1,B1,GND*%
X110040000Y-96100000D03*
%TO.P,P1,B4,VBUS*%
%TO.N,Net-(U1-V+)*%
X110040000Y-95300000D03*
%TO.P,P1,B5,VCONN*%
%TO.N,unconnected-(P1-VCONN-PadB5)*%
X110040000Y-94500000D03*
%TO.P,P1,B6*%
%TO.N,N/C*%
X110040000Y-93700000D03*
%TO.P,P1,B7*%
X110040000Y-92900000D03*
%TO.P,P1,B8*%
X110040000Y-92100000D03*
%TO.P,P1,B9,VBUS*%
%TO.N,Net-(U1-V+)*%
X110040000Y-91300000D03*
%TO.P,P1,B12,GND*%
%TO.N,GND*%
X110040000Y-90500000D03*
D18*
%TO.P,P1,S1,SHIELD*%
%TO.N,Net-(P1-SHIELD)*%
X108770000Y-89350000D03*
X108770000Y-97250000D03*
%TD*%
D19*
%TO.P,R2,1*%
%TO.N,Net-(P1-CC)*%
X104500000Y-94500000D03*
%TO.P,R2,2*%
%TO.N,GND*%
X104500000Y-96325000D03*
%TD*%
D20*
%TO.P,C5,1*%
%TO.N,GND*%
X103500000Y-91225000D03*
%TO.P,C5,2*%
%TO.N,Net-(U1-V+)*%
X103500000Y-89500000D03*
%TD*%
D15*
%TO.P,C3,1*%
%TO.N,Net-(C3-Pad1)*%
X93000000Y-80500000D03*
%TO.P,C3,2*%
%TO.N,GND*%
X95500000Y-80500000D03*
%TD*%
D21*
%TO.P,R3,1*%
%TO.N,Net-(C3-Pad1)*%
X93500000Y-83000000D03*
%TO.P,R3,2*%
%TO.N,Net-(U1-BYPASS)*%
X95325000Y-83000000D03*
%TD*%
D15*
%TO.P,C7,1*%
%TO.N,Net-(C7-Pad1)*%
X89000000Y-93000000D03*
%TO.P,C7,2*%
%TO.N,Net-(C7-Pad2)*%
X89000000Y-90500000D03*
%TD*%
D22*
%TO.P,FB1,1*%
%TO.N,GND*%
X109340000Y-87500000D03*
%TO.P,FB1,2*%
%TO.N,Net-(P1-SHIELD)*%
X108525000Y-87500000D03*
%TD*%
D23*
%TO.P,U1,1,GAIN*%
%TO.N,Net-(RV2-Pad2)*%
X92960000Y-94310000D03*
D24*
%TO.P,U1,2,-*%
%TO.N,GND*%
X95500000Y-94310000D03*
%TO.P,U1,3,+*%
%TO.N,Net-(U1-+)*%
X98040000Y-94310000D03*
%TO.P,U1,4,GND*%
%TO.N,GND*%
X100580000Y-94310000D03*
%TO.P,U1,5*%
%TO.N,Net-(C1-Pad1)*%
X100580000Y-86690000D03*
%TO.P,U1,6,V+*%
%TO.N,Net-(U1-V+)*%
X98040000Y-86690000D03*
%TO.P,U1,7,BYPASS*%
%TO.N,Net-(U1-BYPASS)*%
X95500000Y-86690000D03*
%TO.P,U1,8,GAIN*%
%TO.N,Net-(C7-Pad2)*%
X92960000Y-86690000D03*
%TD*%
D25*
%TO.P,J2,1,Pin_1*%
%TO.N,Net-(J2-Pin_1)*%
X108500000Y-84000000D03*
D26*
%TO.P,J2,2,Pin_2*%
%TO.N,GND*%
X108500000Y-80500000D03*
%TD*%
D27*
%TO.N,GND*%
X74500000Y-91000000D03*
X103000000Y-97000000D03*
X75000000Y-84500000D03*
X98500000Y-97000000D03*
X107000000Y-89500000D03*
X110500000Y-97000000D03*
X110000000Y-88500000D03*
%TD*%
D28*
%TO.N,GND*%
X75000000Y-84500000D02*
X75000000Y-85000000D01*
X75000000Y-85000000D02*
X76500000Y-86500000D01*
%TO.N,Net-(C1-Pad1)*%
X99725000Y-85835000D02*
X100580000Y-86690000D01*
X100580000Y-85580000D02*
X100580000Y-86690000D01*
X99725000Y-83000000D02*
X102500000Y-83000000D01*
X99725000Y-83000000D02*
X99725000Y-85835000D01*
%TO.N,Net-(J2-Pin_1)*%
X105000000Y-80500000D02*
X108500000Y-84000000D01*
X102500000Y-80500000D02*
X105000000Y-80500000D01*
%TO.N,Net-(C2-Pad2)*%
X99825000Y-80500000D02*
X99825000Y-81175000D01*
X99825000Y-81175000D02*
X98000000Y-83000000D01*
%TO.N,Net-(C3-Pad1)*%
X93500000Y-83000000D02*
X93500000Y-81000000D01*
X93500000Y-81000000D02*
X93000000Y-80500000D01*
%TO.N,GND*%
X103000000Y-97000000D02*
X101500000Y-97000000D01*
X110040000Y-90500000D02*
X110040000Y-88200000D01*
X95500000Y-80500000D02*
X98000000Y-80500000D01*
X104500000Y-96325000D02*
X104825000Y-96325000D01*
X107500000Y-90000000D02*
X107000000Y-89500000D01*
X103500000Y-91225000D02*
X101275000Y-91225000D01*
X100580000Y-91920000D02*
X100580000Y-94310000D01*
X110500000Y-96560000D02*
X110040000Y-96100000D01*
X74650000Y-90850000D02*
X76500000Y-90850000D01*
X107500000Y-90500000D02*
X107500000Y-90000000D01*
X110040000Y-88200000D02*
X109340000Y-87500000D01*
X104825000Y-96325000D02*
X105050000Y-96100000D01*
X110500000Y-97000000D02*
X110500000Y-96560000D01*
X74500000Y-91000000D02*
X74650000Y-90850000D01*
X101275000Y-91225000D02*
X100580000Y-91920000D01*
X105050000Y-96100000D02*
X107500000Y-96100000D01*
X103000000Y-97000000D02*
X103825000Y-97000000D01*
X98500000Y-97000000D02*
X99775000Y-97000000D01*
X103825000Y-97000000D02*
X104500000Y-96325000D01*
%TO.N,Net-(U1-V+)*%
X104500000Y-89500000D02*
X106300000Y-91300000D01*
X110434999Y-95300000D02*
X110040000Y-95300000D01*
X98040000Y-88540000D02*
X99000000Y-89500000D01*
X110101634Y-91300000D02*
X110663000Y-91861366D01*
X110040000Y-91300000D02*
X110101634Y-91300000D01*
X98040000Y-86690000D02*
X98040000Y-88540000D01*
X103500000Y-89500000D02*
X104500000Y-89500000D01*
X107500000Y-91300000D02*
X110040000Y-91300000D01*
X106300000Y-91300000D02*
X107500000Y-91300000D01*
X110040000Y-95300000D02*
X107500000Y-95300000D01*
X99000000Y-89500000D02*
X103500000Y-89500000D01*
X107894999Y-95300000D02*
X107500000Y-95300000D01*
X110663000Y-91861366D02*
X110663000Y-95071999D01*
X110663000Y-95071999D02*
X110434999Y-95300000D01*
%TO.N,Net-(C7-Pad1)*%
X89000000Y-93000000D02*
X89000000Y-93500000D01*
X83000000Y-92000000D02*
X84000000Y-91000000D01*
X84000000Y-91000000D02*
X87000000Y-91000000D01*
X87000000Y-91000000D02*
X89000000Y-93000000D01*
X83000000Y-96300000D02*
X83000000Y-92000000D01*
X76500000Y-102800000D02*
X83000000Y-96300000D01*
%TO.N,Net-(C7-Pad2)*%
X90810000Y-86690000D02*
X92960000Y-86690000D01*
X89000000Y-88500000D02*
X90810000Y-86690000D01*
X89000000Y-90500000D02*
X89000000Y-88500000D01*
%TO.N,Net-(P1-SHIELD)*%
X107500000Y-88080000D02*
X108770000Y-89350000D01*
X111000000Y-87500000D02*
X110000000Y-86500000D01*
X108525000Y-87500000D02*
X108770000Y-87745000D01*
X110671706Y-97574999D02*
X111028000Y-97218705D01*
X107500000Y-86947374D02*
X107500000Y-88080000D01*
X111000000Y-96753295D02*
X111000000Y-87500000D01*
X109094999Y-97574999D02*
X110671706Y-97574999D01*
X111028000Y-97218705D02*
X111028000Y-96781295D01*
X111028000Y-96781295D02*
X111000000Y-96753295D01*
X110000000Y-86500000D02*
X107947374Y-86500000D01*
X107947374Y-86500000D02*
X107500000Y-86947374D01*
X108770000Y-97250000D02*
X109094999Y-97574999D01*
X108770000Y-87745000D02*
X108770000Y-89350000D01*
%TO.N,Net-(J1-PadT)*%
X81000000Y-93000000D02*
X81000000Y-91400000D01*
X81000000Y-91400000D02*
X85900000Y-86500000D01*
X78850000Y-95150000D02*
X81000000Y-93000000D01*
X76500000Y-95150000D02*
X78850000Y-95150000D01*
%TO.N,Net-(P1-CC)*%
X104500000Y-94500000D02*
X104500000Y-93000000D01*
X105400000Y-92100000D02*
X107500000Y-92100000D01*
X104500000Y-93000000D02*
X105400000Y-92100000D01*
%TO.N,Net-(U1-BYPASS)*%
X95500000Y-83175000D02*
X95325000Y-83000000D01*
X95500000Y-86690000D02*
X95500000Y-83175000D01*
%TO.N,Net-(U1-+)*%
X91000000Y-92500000D02*
X91500000Y-92000000D01*
X91500000Y-92000000D02*
X95730000Y-92000000D01*
X95730000Y-92000000D02*
X98040000Y-94310000D01*
X86650000Y-94500000D02*
X90000000Y-94500000D01*
X90000000Y-94500000D02*
X91000000Y-93500000D01*
X91000000Y-93500000D02*
X91000000Y-92500000D01*
X85150000Y-93000000D02*
X86650000Y-94500000D01*
%TO.N,Net-(RV2-Pad2)*%
X85150000Y-100650000D02*
X89350000Y-100650000D01*
X89350000Y-100650000D02*
X92960000Y-97040000D01*
X92960000Y-97040000D02*
X92960000Y-94310000D01*
%TD*%
M02*
