%TF.GenerationSoftware,KiCad,Pcbnew,9.0.3-9.0.3-0~ubuntu24.04.1*%
%TF.CreationDate,2025-07-24T18:13:32+02:00*%
%TF.ProjectId,ampli_audio,616d706c-695f-4617-9564-696f2e6b6963,rev?*%
%TF.SameCoordinates,Original*%
%TF.FileFunction,Legend,Top*%
%TF.FilePolarity,Positive*%
%FSLAX46Y46*%
G04 Gerber Fmt 4.6, Leading zero omitted, Abs format (unit mm)*
G04 Created by KiCad (PCBNEW 9.0.3-9.0.3-0~ubuntu24.04.1) date 2025-07-24 18:13:32*
%MOMM*%
%LPD*%
G01*
G04 APERTURE LIST*
%ADD10C,0.150000*%
%ADD11C,0.120000*%
G04 APERTURE END LIST*
D10*
X104165599Y-102745085D02*
X104075123Y-102697466D01*
X104075123Y-102697466D02*
X103984647Y-102602228D01*
X103984647Y-102602228D02*
X103848933Y-102459370D01*
X103848933Y-102459370D02*
X103758456Y-102411751D01*
X103758456Y-102411751D02*
X103667980Y-102411751D01*
X103713218Y-102649847D02*
X103622742Y-102602228D01*
X103622742Y-102602228D02*
X103532266Y-102506989D01*
X103532266Y-102506989D02*
X103487028Y-102316513D01*
X103487028Y-102316513D02*
X103487028Y-101983180D01*
X103487028Y-101983180D02*
X103532266Y-101792704D01*
X103532266Y-101792704D02*
X103622742Y-101697466D01*
X103622742Y-101697466D02*
X103713218Y-101649847D01*
X103713218Y-101649847D02*
X103894171Y-101649847D01*
X103894171Y-101649847D02*
X103984647Y-101697466D01*
X103984647Y-101697466D02*
X104075123Y-101792704D01*
X104075123Y-101792704D02*
X104120361Y-101983180D01*
X104120361Y-101983180D02*
X104120361Y-102316513D01*
X104120361Y-102316513D02*
X104075123Y-102506989D01*
X104075123Y-102506989D02*
X103984647Y-102602228D01*
X103984647Y-102602228D02*
X103894171Y-102649847D01*
X103894171Y-102649847D02*
X103713218Y-102649847D01*
X104934647Y-101983180D02*
X104934647Y-102649847D01*
X104527504Y-101983180D02*
X104527504Y-102506989D01*
X104527504Y-102506989D02*
X104572742Y-102602228D01*
X104572742Y-102602228D02*
X104663218Y-102649847D01*
X104663218Y-102649847D02*
X104798933Y-102649847D01*
X104798933Y-102649847D02*
X104889409Y-102602228D01*
X104889409Y-102602228D02*
X104934647Y-102554608D01*
X105387028Y-102649847D02*
X105387028Y-101649847D01*
X105387028Y-102030799D02*
X105477504Y-101983180D01*
X105477504Y-101983180D02*
X105658457Y-101983180D01*
X105658457Y-101983180D02*
X105748933Y-102030799D01*
X105748933Y-102030799D02*
X105794171Y-102078418D01*
X105794171Y-102078418D02*
X105839409Y-102173656D01*
X105839409Y-102173656D02*
X105839409Y-102459370D01*
X105839409Y-102459370D02*
X105794171Y-102554608D01*
X105794171Y-102554608D02*
X105748933Y-102602228D01*
X105748933Y-102602228D02*
X105658457Y-102649847D01*
X105658457Y-102649847D02*
X105477504Y-102649847D01*
X105477504Y-102649847D02*
X105387028Y-102602228D01*
X106246552Y-102649847D02*
X106246552Y-101983180D01*
X106246552Y-101649847D02*
X106201314Y-101697466D01*
X106201314Y-101697466D02*
X106246552Y-101745085D01*
X106246552Y-101745085D02*
X106291790Y-101697466D01*
X106291790Y-101697466D02*
X106246552Y-101649847D01*
X106246552Y-101649847D02*
X106246552Y-101745085D01*
X106563219Y-101983180D02*
X106925123Y-101983180D01*
X106698933Y-101649847D02*
X106698933Y-102506989D01*
X106698933Y-102506989D02*
X106744171Y-102602228D01*
X106744171Y-102602228D02*
X106834647Y-102649847D01*
X106834647Y-102649847D02*
X106925123Y-102649847D01*
X107241790Y-102649847D02*
X107241790Y-101983180D01*
X107241790Y-101649847D02*
X107196552Y-101697466D01*
X107196552Y-101697466D02*
X107241790Y-101745085D01*
X107241790Y-101745085D02*
X107287028Y-101697466D01*
X107287028Y-101697466D02*
X107241790Y-101649847D01*
X107241790Y-101649847D02*
X107241790Y-101745085D01*
X108101314Y-102602228D02*
X108010838Y-102649847D01*
X108010838Y-102649847D02*
X107829885Y-102649847D01*
X107829885Y-102649847D02*
X107739409Y-102602228D01*
X107739409Y-102602228D02*
X107694171Y-102554608D01*
X107694171Y-102554608D02*
X107648933Y-102459370D01*
X107648933Y-102459370D02*
X107648933Y-102173656D01*
X107648933Y-102173656D02*
X107694171Y-102078418D01*
X107694171Y-102078418D02*
X107739409Y-102030799D01*
X107739409Y-102030799D02*
X107829885Y-101983180D01*
X107829885Y-101983180D02*
X108010838Y-101983180D01*
X108010838Y-101983180D02*
X108101314Y-102030799D01*
X108463219Y-102602228D02*
X108553695Y-102649847D01*
X108553695Y-102649847D02*
X108734647Y-102649847D01*
X108734647Y-102649847D02*
X108825124Y-102602228D01*
X108825124Y-102602228D02*
X108870362Y-102506989D01*
X108870362Y-102506989D02*
X108870362Y-102459370D01*
X108870362Y-102459370D02*
X108825124Y-102364132D01*
X108825124Y-102364132D02*
X108734647Y-102316513D01*
X108734647Y-102316513D02*
X108598933Y-102316513D01*
X108598933Y-102316513D02*
X108508457Y-102268894D01*
X108508457Y-102268894D02*
X108463219Y-102173656D01*
X108463219Y-102173656D02*
X108463219Y-102126037D01*
X108463219Y-102126037D02*
X108508457Y-102030799D01*
X108508457Y-102030799D02*
X108598933Y-101983180D01*
X108598933Y-101983180D02*
X108734647Y-101983180D01*
X108734647Y-101983180D02*
X108825124Y-102030799D01*
X109956077Y-102364132D02*
X110408458Y-102364132D01*
X109865601Y-102649847D02*
X110182267Y-101649847D01*
X110182267Y-101649847D02*
X110498934Y-102649847D01*
X110815601Y-102554608D02*
X110860839Y-102602228D01*
X110860839Y-102602228D02*
X110815601Y-102649847D01*
X110815601Y-102649847D02*
X110770363Y-102602228D01*
X110770363Y-102602228D02*
X110815601Y-102554608D01*
X110815601Y-102554608D02*
X110815601Y-102649847D01*
X111267982Y-102126037D02*
X111584649Y-102126037D01*
X111720363Y-102649847D02*
X111267982Y-102649847D01*
X111267982Y-102649847D02*
X111267982Y-101649847D01*
X111267982Y-101649847D02*
X111720363Y-101649847D01*
X101541789Y-103974076D02*
X101994170Y-103974076D01*
X101451313Y-104259791D02*
X101767979Y-103259791D01*
X101767979Y-103259791D02*
X102084646Y-104259791D01*
X102808456Y-103593124D02*
X102808456Y-104259791D01*
X102401313Y-103593124D02*
X102401313Y-104116933D01*
X102401313Y-104116933D02*
X102446551Y-104212172D01*
X102446551Y-104212172D02*
X102537027Y-104259791D01*
X102537027Y-104259791D02*
X102672742Y-104259791D01*
X102672742Y-104259791D02*
X102763218Y-104212172D01*
X102763218Y-104212172D02*
X102808456Y-104164552D01*
X103667980Y-104259791D02*
X103667980Y-103259791D01*
X103667980Y-104212172D02*
X103577504Y-104259791D01*
X103577504Y-104259791D02*
X103396551Y-104259791D01*
X103396551Y-104259791D02*
X103306075Y-104212172D01*
X103306075Y-104212172D02*
X103260837Y-104164552D01*
X103260837Y-104164552D02*
X103215599Y-104069314D01*
X103215599Y-104069314D02*
X103215599Y-103783600D01*
X103215599Y-103783600D02*
X103260837Y-103688362D01*
X103260837Y-103688362D02*
X103306075Y-103640743D01*
X103306075Y-103640743D02*
X103396551Y-103593124D01*
X103396551Y-103593124D02*
X103577504Y-103593124D01*
X103577504Y-103593124D02*
X103667980Y-103640743D01*
X104120361Y-104259791D02*
X104120361Y-103593124D01*
X104120361Y-103259791D02*
X104075123Y-103307410D01*
X104075123Y-103307410D02*
X104120361Y-103355029D01*
X104120361Y-103355029D02*
X104165599Y-103307410D01*
X104165599Y-103307410D02*
X104120361Y-103259791D01*
X104120361Y-103259791D02*
X104120361Y-103355029D01*
X104708456Y-104259791D02*
X104617980Y-104212172D01*
X104617980Y-104212172D02*
X104572742Y-104164552D01*
X104572742Y-104164552D02*
X104527504Y-104069314D01*
X104527504Y-104069314D02*
X104527504Y-103783600D01*
X104527504Y-103783600D02*
X104572742Y-103688362D01*
X104572742Y-103688362D02*
X104617980Y-103640743D01*
X104617980Y-103640743D02*
X104708456Y-103593124D01*
X104708456Y-103593124D02*
X104844171Y-103593124D01*
X104844171Y-103593124D02*
X104934647Y-103640743D01*
X104934647Y-103640743D02*
X104979885Y-103688362D01*
X104979885Y-103688362D02*
X105025123Y-103783600D01*
X105025123Y-103783600D02*
X105025123Y-104069314D01*
X105025123Y-104069314D02*
X104979885Y-104164552D01*
X104979885Y-104164552D02*
X104934647Y-104212172D01*
X104934647Y-104212172D02*
X104844171Y-104259791D01*
X104844171Y-104259791D02*
X104708456Y-104259791D01*
X106563219Y-104259791D02*
X106563219Y-103735981D01*
X106563219Y-103735981D02*
X106517981Y-103640743D01*
X106517981Y-103640743D02*
X106427505Y-103593124D01*
X106427505Y-103593124D02*
X106246552Y-103593124D01*
X106246552Y-103593124D02*
X106156076Y-103640743D01*
X106563219Y-104212172D02*
X106472743Y-104259791D01*
X106472743Y-104259791D02*
X106246552Y-104259791D01*
X106246552Y-104259791D02*
X106156076Y-104212172D01*
X106156076Y-104212172D02*
X106110838Y-104116933D01*
X106110838Y-104116933D02*
X106110838Y-104021695D01*
X106110838Y-104021695D02*
X106156076Y-103926457D01*
X106156076Y-103926457D02*
X106246552Y-103878838D01*
X106246552Y-103878838D02*
X106472743Y-103878838D01*
X106472743Y-103878838D02*
X106563219Y-103831219D01*
X107015600Y-104259791D02*
X107015600Y-103593124D01*
X107015600Y-103688362D02*
X107060838Y-103640743D01*
X107060838Y-103640743D02*
X107151314Y-103593124D01*
X107151314Y-103593124D02*
X107287029Y-103593124D01*
X107287029Y-103593124D02*
X107377505Y-103640743D01*
X107377505Y-103640743D02*
X107422743Y-103735981D01*
X107422743Y-103735981D02*
X107422743Y-104259791D01*
X107422743Y-103735981D02*
X107467981Y-103640743D01*
X107467981Y-103640743D02*
X107558457Y-103593124D01*
X107558457Y-103593124D02*
X107694171Y-103593124D01*
X107694171Y-103593124D02*
X107784648Y-103640743D01*
X107784648Y-103640743D02*
X107829886Y-103735981D01*
X107829886Y-103735981D02*
X107829886Y-104259791D01*
X108282267Y-103593124D02*
X108282267Y-104593124D01*
X108282267Y-103640743D02*
X108372743Y-103593124D01*
X108372743Y-103593124D02*
X108553696Y-103593124D01*
X108553696Y-103593124D02*
X108644172Y-103640743D01*
X108644172Y-103640743D02*
X108689410Y-103688362D01*
X108689410Y-103688362D02*
X108734648Y-103783600D01*
X108734648Y-103783600D02*
X108734648Y-104069314D01*
X108734648Y-104069314D02*
X108689410Y-104164552D01*
X108689410Y-104164552D02*
X108644172Y-104212172D01*
X108644172Y-104212172D02*
X108553696Y-104259791D01*
X108553696Y-104259791D02*
X108372743Y-104259791D01*
X108372743Y-104259791D02*
X108282267Y-104212172D01*
X110363220Y-104259791D02*
X109820363Y-104259791D01*
X110091791Y-104259791D02*
X110091791Y-103259791D01*
X110091791Y-103259791D02*
X110001315Y-103402648D01*
X110001315Y-103402648D02*
X109910839Y-103497886D01*
X109910839Y-103497886D02*
X109820363Y-103545505D01*
X110770363Y-104164552D02*
X110815601Y-104212172D01*
X110815601Y-104212172D02*
X110770363Y-104259791D01*
X110770363Y-104259791D02*
X110725125Y-104212172D01*
X110725125Y-104212172D02*
X110770363Y-104164552D01*
X110770363Y-104164552D02*
X110770363Y-104259791D01*
X111403696Y-103259791D02*
X111494173Y-103259791D01*
X111494173Y-103259791D02*
X111584649Y-103307410D01*
X111584649Y-103307410D02*
X111629887Y-103355029D01*
X111629887Y-103355029D02*
X111675125Y-103450267D01*
X111675125Y-103450267D02*
X111720363Y-103640743D01*
X111720363Y-103640743D02*
X111720363Y-103878838D01*
X111720363Y-103878838D02*
X111675125Y-104069314D01*
X111675125Y-104069314D02*
X111629887Y-104164552D01*
X111629887Y-104164552D02*
X111584649Y-104212172D01*
X111584649Y-104212172D02*
X111494173Y-104259791D01*
X111494173Y-104259791D02*
X111403696Y-104259791D01*
X111403696Y-104259791D02*
X111313220Y-104212172D01*
X111313220Y-104212172D02*
X111267982Y-104164552D01*
X111267982Y-104164552D02*
X111222744Y-104069314D01*
X111222744Y-104069314D02*
X111177506Y-103878838D01*
X111177506Y-103878838D02*
X111177506Y-103640743D01*
X111177506Y-103640743D02*
X111222744Y-103450267D01*
X111222744Y-103450267D02*
X111267982Y-103355029D01*
X111267982Y-103355029D02*
X111313220Y-103307410D01*
X111313220Y-103307410D02*
X111403696Y-103259791D01*
X80666666Y-86454819D02*
X80666666Y-87169104D01*
X80666666Y-87169104D02*
X80619047Y-87311961D01*
X80619047Y-87311961D02*
X80523809Y-87407200D01*
X80523809Y-87407200D02*
X80380952Y-87454819D01*
X80380952Y-87454819D02*
X80285714Y-87454819D01*
X81666666Y-87454819D02*
X81095238Y-87454819D01*
X81380952Y-87454819D02*
X81380952Y-86454819D01*
X81380952Y-86454819D02*
X81285714Y-86597676D01*
X81285714Y-86597676D02*
X81190476Y-86692914D01*
X81190476Y-86692914D02*
X81095238Y-86740533D01*
X98833333Y-79454819D02*
X98500000Y-78978628D01*
X98261905Y-79454819D02*
X98261905Y-78454819D01*
X98261905Y-78454819D02*
X98642857Y-78454819D01*
X98642857Y-78454819D02*
X98738095Y-78502438D01*
X98738095Y-78502438D02*
X98785714Y-78550057D01*
X98785714Y-78550057D02*
X98833333Y-78645295D01*
X98833333Y-78645295D02*
X98833333Y-78788152D01*
X98833333Y-78788152D02*
X98785714Y-78883390D01*
X98785714Y-78883390D02*
X98738095Y-78931009D01*
X98738095Y-78931009D02*
X98642857Y-78978628D01*
X98642857Y-78978628D02*
X98261905Y-78978628D01*
X99785714Y-79454819D02*
X99214286Y-79454819D01*
X99500000Y-79454819D02*
X99500000Y-78454819D01*
X99500000Y-78454819D02*
X99404762Y-78597676D01*
X99404762Y-78597676D02*
X99309524Y-78692914D01*
X99309524Y-78692914D02*
X99214286Y-78740533D01*
X74904761Y-93454819D02*
X74571428Y-92978628D01*
X74333333Y-93454819D02*
X74333333Y-92454819D01*
X74333333Y-92454819D02*
X74714285Y-92454819D01*
X74714285Y-92454819D02*
X74809523Y-92502438D01*
X74809523Y-92502438D02*
X74857142Y-92550057D01*
X74857142Y-92550057D02*
X74904761Y-92645295D01*
X74904761Y-92645295D02*
X74904761Y-92788152D01*
X74904761Y-92788152D02*
X74857142Y-92883390D01*
X74857142Y-92883390D02*
X74809523Y-92931009D01*
X74809523Y-92931009D02*
X74714285Y-92978628D01*
X74714285Y-92978628D02*
X74333333Y-92978628D01*
X75190476Y-92454819D02*
X75523809Y-93454819D01*
X75523809Y-93454819D02*
X75857142Y-92454819D01*
X76714285Y-93454819D02*
X76142857Y-93454819D01*
X76428571Y-93454819D02*
X76428571Y-92454819D01*
X76428571Y-92454819D02*
X76333333Y-92597676D01*
X76333333Y-92597676D02*
X76238095Y-92692914D01*
X76238095Y-92692914D02*
X76142857Y-92740533D01*
X100470833Y-98859580D02*
X100423214Y-98907200D01*
X100423214Y-98907200D02*
X100280357Y-98954819D01*
X100280357Y-98954819D02*
X100185119Y-98954819D01*
X100185119Y-98954819D02*
X100042262Y-98907200D01*
X100042262Y-98907200D02*
X99947024Y-98811961D01*
X99947024Y-98811961D02*
X99899405Y-98716723D01*
X99899405Y-98716723D02*
X99851786Y-98526247D01*
X99851786Y-98526247D02*
X99851786Y-98383390D01*
X99851786Y-98383390D02*
X99899405Y-98192914D01*
X99899405Y-98192914D02*
X99947024Y-98097676D01*
X99947024Y-98097676D02*
X100042262Y-98002438D01*
X100042262Y-98002438D02*
X100185119Y-97954819D01*
X100185119Y-97954819D02*
X100280357Y-97954819D01*
X100280357Y-97954819D02*
X100423214Y-98002438D01*
X100423214Y-98002438D02*
X100470833Y-98050057D01*
X101327976Y-97954819D02*
X101137500Y-97954819D01*
X101137500Y-97954819D02*
X101042262Y-98002438D01*
X101042262Y-98002438D02*
X100994643Y-98050057D01*
X100994643Y-98050057D02*
X100899405Y-98192914D01*
X100899405Y-98192914D02*
X100851786Y-98383390D01*
X100851786Y-98383390D02*
X100851786Y-98764342D01*
X100851786Y-98764342D02*
X100899405Y-98859580D01*
X100899405Y-98859580D02*
X100947024Y-98907200D01*
X100947024Y-98907200D02*
X101042262Y-98954819D01*
X101042262Y-98954819D02*
X101232738Y-98954819D01*
X101232738Y-98954819D02*
X101327976Y-98907200D01*
X101327976Y-98907200D02*
X101375595Y-98859580D01*
X101375595Y-98859580D02*
X101423214Y-98764342D01*
X101423214Y-98764342D02*
X101423214Y-98526247D01*
X101423214Y-98526247D02*
X101375595Y-98431009D01*
X101375595Y-98431009D02*
X101327976Y-98383390D01*
X101327976Y-98383390D02*
X101232738Y-98335771D01*
X101232738Y-98335771D02*
X101042262Y-98335771D01*
X101042262Y-98335771D02*
X100947024Y-98383390D01*
X100947024Y-98383390D02*
X100899405Y-98431009D01*
X100899405Y-98431009D02*
X100851786Y-98526247D01*
X102333333Y-78859580D02*
X102285714Y-78907200D01*
X102285714Y-78907200D02*
X102142857Y-78954819D01*
X102142857Y-78954819D02*
X102047619Y-78954819D01*
X102047619Y-78954819D02*
X101904762Y-78907200D01*
X101904762Y-78907200D02*
X101809524Y-78811961D01*
X101809524Y-78811961D02*
X101761905Y-78716723D01*
X101761905Y-78716723D02*
X101714286Y-78526247D01*
X101714286Y-78526247D02*
X101714286Y-78383390D01*
X101714286Y-78383390D02*
X101761905Y-78192914D01*
X101761905Y-78192914D02*
X101809524Y-78097676D01*
X101809524Y-78097676D02*
X101904762Y-78002438D01*
X101904762Y-78002438D02*
X102047619Y-77954819D01*
X102047619Y-77954819D02*
X102142857Y-77954819D01*
X102142857Y-77954819D02*
X102285714Y-78002438D01*
X102285714Y-78002438D02*
X102333333Y-78050057D01*
X103285714Y-78954819D02*
X102714286Y-78954819D01*
X103000000Y-78954819D02*
X103000000Y-77954819D01*
X103000000Y-77954819D02*
X102904762Y-78097676D01*
X102904762Y-78097676D02*
X102809524Y-78192914D01*
X102809524Y-78192914D02*
X102714286Y-78240533D01*
X98833333Y-84859580D02*
X98785714Y-84907200D01*
X98785714Y-84907200D02*
X98642857Y-84954819D01*
X98642857Y-84954819D02*
X98547619Y-84954819D01*
X98547619Y-84954819D02*
X98404762Y-84907200D01*
X98404762Y-84907200D02*
X98309524Y-84811961D01*
X98309524Y-84811961D02*
X98261905Y-84716723D01*
X98261905Y-84716723D02*
X98214286Y-84526247D01*
X98214286Y-84526247D02*
X98214286Y-84383390D01*
X98214286Y-84383390D02*
X98261905Y-84192914D01*
X98261905Y-84192914D02*
X98309524Y-84097676D01*
X98309524Y-84097676D02*
X98404762Y-84002438D01*
X98404762Y-84002438D02*
X98547619Y-83954819D01*
X98547619Y-83954819D02*
X98642857Y-83954819D01*
X98642857Y-83954819D02*
X98785714Y-84002438D01*
X98785714Y-84002438D02*
X98833333Y-84050057D01*
X99214286Y-84050057D02*
X99261905Y-84002438D01*
X99261905Y-84002438D02*
X99357143Y-83954819D01*
X99357143Y-83954819D02*
X99595238Y-83954819D01*
X99595238Y-83954819D02*
X99690476Y-84002438D01*
X99690476Y-84002438D02*
X99738095Y-84050057D01*
X99738095Y-84050057D02*
X99785714Y-84145295D01*
X99785714Y-84145295D02*
X99785714Y-84240533D01*
X99785714Y-84240533D02*
X99738095Y-84383390D01*
X99738095Y-84383390D02*
X99166667Y-84954819D01*
X99166667Y-84954819D02*
X99785714Y-84954819D01*
X74904761Y-100954819D02*
X74571428Y-100478628D01*
X74333333Y-100954819D02*
X74333333Y-99954819D01*
X74333333Y-99954819D02*
X74714285Y-99954819D01*
X74714285Y-99954819D02*
X74809523Y-100002438D01*
X74809523Y-100002438D02*
X74857142Y-100050057D01*
X74857142Y-100050057D02*
X74904761Y-100145295D01*
X74904761Y-100145295D02*
X74904761Y-100288152D01*
X74904761Y-100288152D02*
X74857142Y-100383390D01*
X74857142Y-100383390D02*
X74809523Y-100431009D01*
X74809523Y-100431009D02*
X74714285Y-100478628D01*
X74714285Y-100478628D02*
X74333333Y-100478628D01*
X75190476Y-99954819D02*
X75523809Y-100954819D01*
X75523809Y-100954819D02*
X75857142Y-99954819D01*
X76142857Y-100050057D02*
X76190476Y-100002438D01*
X76190476Y-100002438D02*
X76285714Y-99954819D01*
X76285714Y-99954819D02*
X76523809Y-99954819D01*
X76523809Y-99954819D02*
X76619047Y-100002438D01*
X76619047Y-100002438D02*
X76666666Y-100050057D01*
X76666666Y-100050057D02*
X76714285Y-100145295D01*
X76714285Y-100145295D02*
X76714285Y-100240533D01*
X76714285Y-100240533D02*
X76666666Y-100383390D01*
X76666666Y-100383390D02*
X76095238Y-100954819D01*
X76095238Y-100954819D02*
X76714285Y-100954819D01*
X108261905Y-99254819D02*
X108261905Y-98254819D01*
X108261905Y-98254819D02*
X108642857Y-98254819D01*
X108642857Y-98254819D02*
X108738095Y-98302438D01*
X108738095Y-98302438D02*
X108785714Y-98350057D01*
X108785714Y-98350057D02*
X108833333Y-98445295D01*
X108833333Y-98445295D02*
X108833333Y-98588152D01*
X108833333Y-98588152D02*
X108785714Y-98683390D01*
X108785714Y-98683390D02*
X108738095Y-98731009D01*
X108738095Y-98731009D02*
X108642857Y-98778628D01*
X108642857Y-98778628D02*
X108261905Y-98778628D01*
X109785714Y-99254819D02*
X109214286Y-99254819D01*
X109500000Y-99254819D02*
X109500000Y-98254819D01*
X109500000Y-98254819D02*
X109404762Y-98397676D01*
X109404762Y-98397676D02*
X109309524Y-98492914D01*
X109309524Y-98492914D02*
X109214286Y-98540533D01*
X104333333Y-98454819D02*
X104000000Y-97978628D01*
X103761905Y-98454819D02*
X103761905Y-97454819D01*
X103761905Y-97454819D02*
X104142857Y-97454819D01*
X104142857Y-97454819D02*
X104238095Y-97502438D01*
X104238095Y-97502438D02*
X104285714Y-97550057D01*
X104285714Y-97550057D02*
X104333333Y-97645295D01*
X104333333Y-97645295D02*
X104333333Y-97788152D01*
X104333333Y-97788152D02*
X104285714Y-97883390D01*
X104285714Y-97883390D02*
X104238095Y-97931009D01*
X104238095Y-97931009D02*
X104142857Y-97978628D01*
X104142857Y-97978628D02*
X103761905Y-97978628D01*
X104714286Y-97550057D02*
X104761905Y-97502438D01*
X104761905Y-97502438D02*
X104857143Y-97454819D01*
X104857143Y-97454819D02*
X105095238Y-97454819D01*
X105095238Y-97454819D02*
X105190476Y-97502438D01*
X105190476Y-97502438D02*
X105238095Y-97550057D01*
X105238095Y-97550057D02*
X105285714Y-97645295D01*
X105285714Y-97645295D02*
X105285714Y-97740533D01*
X105285714Y-97740533D02*
X105238095Y-97883390D01*
X105238095Y-97883390D02*
X104666667Y-98454819D01*
X104666667Y-98454819D02*
X105285714Y-98454819D01*
X103333333Y-88359580D02*
X103285714Y-88407200D01*
X103285714Y-88407200D02*
X103142857Y-88454819D01*
X103142857Y-88454819D02*
X103047619Y-88454819D01*
X103047619Y-88454819D02*
X102904762Y-88407200D01*
X102904762Y-88407200D02*
X102809524Y-88311961D01*
X102809524Y-88311961D02*
X102761905Y-88216723D01*
X102761905Y-88216723D02*
X102714286Y-88026247D01*
X102714286Y-88026247D02*
X102714286Y-87883390D01*
X102714286Y-87883390D02*
X102761905Y-87692914D01*
X102761905Y-87692914D02*
X102809524Y-87597676D01*
X102809524Y-87597676D02*
X102904762Y-87502438D01*
X102904762Y-87502438D02*
X103047619Y-87454819D01*
X103047619Y-87454819D02*
X103142857Y-87454819D01*
X103142857Y-87454819D02*
X103285714Y-87502438D01*
X103285714Y-87502438D02*
X103333333Y-87550057D01*
X104238095Y-87454819D02*
X103761905Y-87454819D01*
X103761905Y-87454819D02*
X103714286Y-87931009D01*
X103714286Y-87931009D02*
X103761905Y-87883390D01*
X103761905Y-87883390D02*
X103857143Y-87835771D01*
X103857143Y-87835771D02*
X104095238Y-87835771D01*
X104095238Y-87835771D02*
X104190476Y-87883390D01*
X104190476Y-87883390D02*
X104238095Y-87931009D01*
X104238095Y-87931009D02*
X104285714Y-88026247D01*
X104285714Y-88026247D02*
X104285714Y-88264342D01*
X104285714Y-88264342D02*
X104238095Y-88359580D01*
X104238095Y-88359580D02*
X104190476Y-88407200D01*
X104190476Y-88407200D02*
X104095238Y-88454819D01*
X104095238Y-88454819D02*
X103857143Y-88454819D01*
X103857143Y-88454819D02*
X103761905Y-88407200D01*
X103761905Y-88407200D02*
X103714286Y-88359580D01*
X94083333Y-78859580D02*
X94035714Y-78907200D01*
X94035714Y-78907200D02*
X93892857Y-78954819D01*
X93892857Y-78954819D02*
X93797619Y-78954819D01*
X93797619Y-78954819D02*
X93654762Y-78907200D01*
X93654762Y-78907200D02*
X93559524Y-78811961D01*
X93559524Y-78811961D02*
X93511905Y-78716723D01*
X93511905Y-78716723D02*
X93464286Y-78526247D01*
X93464286Y-78526247D02*
X93464286Y-78383390D01*
X93464286Y-78383390D02*
X93511905Y-78192914D01*
X93511905Y-78192914D02*
X93559524Y-78097676D01*
X93559524Y-78097676D02*
X93654762Y-78002438D01*
X93654762Y-78002438D02*
X93797619Y-77954819D01*
X93797619Y-77954819D02*
X93892857Y-77954819D01*
X93892857Y-77954819D02*
X94035714Y-78002438D01*
X94035714Y-78002438D02*
X94083333Y-78050057D01*
X94416667Y-77954819D02*
X95035714Y-77954819D01*
X95035714Y-77954819D02*
X94702381Y-78335771D01*
X94702381Y-78335771D02*
X94845238Y-78335771D01*
X94845238Y-78335771D02*
X94940476Y-78383390D01*
X94940476Y-78383390D02*
X94988095Y-78431009D01*
X94988095Y-78431009D02*
X95035714Y-78526247D01*
X95035714Y-78526247D02*
X95035714Y-78764342D01*
X95035714Y-78764342D02*
X94988095Y-78859580D01*
X94988095Y-78859580D02*
X94940476Y-78907200D01*
X94940476Y-78907200D02*
X94845238Y-78954819D01*
X94845238Y-78954819D02*
X94559524Y-78954819D01*
X94559524Y-78954819D02*
X94464286Y-78907200D01*
X94464286Y-78907200D02*
X94416667Y-78859580D01*
X91833333Y-83454819D02*
X91500000Y-82978628D01*
X91261905Y-83454819D02*
X91261905Y-82454819D01*
X91261905Y-82454819D02*
X91642857Y-82454819D01*
X91642857Y-82454819D02*
X91738095Y-82502438D01*
X91738095Y-82502438D02*
X91785714Y-82550057D01*
X91785714Y-82550057D02*
X91833333Y-82645295D01*
X91833333Y-82645295D02*
X91833333Y-82788152D01*
X91833333Y-82788152D02*
X91785714Y-82883390D01*
X91785714Y-82883390D02*
X91738095Y-82931009D01*
X91738095Y-82931009D02*
X91642857Y-82978628D01*
X91642857Y-82978628D02*
X91261905Y-82978628D01*
X92166667Y-82454819D02*
X92785714Y-82454819D01*
X92785714Y-82454819D02*
X92452381Y-82835771D01*
X92452381Y-82835771D02*
X92595238Y-82835771D01*
X92595238Y-82835771D02*
X92690476Y-82883390D01*
X92690476Y-82883390D02*
X92738095Y-82931009D01*
X92738095Y-82931009D02*
X92785714Y-83026247D01*
X92785714Y-83026247D02*
X92785714Y-83264342D01*
X92785714Y-83264342D02*
X92738095Y-83359580D01*
X92738095Y-83359580D02*
X92690476Y-83407200D01*
X92690476Y-83407200D02*
X92595238Y-83454819D01*
X92595238Y-83454819D02*
X92309524Y-83454819D01*
X92309524Y-83454819D02*
X92214286Y-83407200D01*
X92214286Y-83407200D02*
X92166667Y-83359580D01*
X88833333Y-95359580D02*
X88785714Y-95407200D01*
X88785714Y-95407200D02*
X88642857Y-95454819D01*
X88642857Y-95454819D02*
X88547619Y-95454819D01*
X88547619Y-95454819D02*
X88404762Y-95407200D01*
X88404762Y-95407200D02*
X88309524Y-95311961D01*
X88309524Y-95311961D02*
X88261905Y-95216723D01*
X88261905Y-95216723D02*
X88214286Y-95026247D01*
X88214286Y-95026247D02*
X88214286Y-94883390D01*
X88214286Y-94883390D02*
X88261905Y-94692914D01*
X88261905Y-94692914D02*
X88309524Y-94597676D01*
X88309524Y-94597676D02*
X88404762Y-94502438D01*
X88404762Y-94502438D02*
X88547619Y-94454819D01*
X88547619Y-94454819D02*
X88642857Y-94454819D01*
X88642857Y-94454819D02*
X88785714Y-94502438D01*
X88785714Y-94502438D02*
X88833333Y-94550057D01*
X89166667Y-94454819D02*
X89833333Y-94454819D01*
X89833333Y-94454819D02*
X89404762Y-95454819D01*
X110666666Y-87431009D02*
X110333333Y-87431009D01*
X110333333Y-87954819D02*
X110333333Y-86954819D01*
X110333333Y-86954819D02*
X110809523Y-86954819D01*
X111523809Y-87431009D02*
X111666666Y-87478628D01*
X111666666Y-87478628D02*
X111714285Y-87526247D01*
X111714285Y-87526247D02*
X111761904Y-87621485D01*
X111761904Y-87621485D02*
X111761904Y-87764342D01*
X111761904Y-87764342D02*
X111714285Y-87859580D01*
X111714285Y-87859580D02*
X111666666Y-87907200D01*
X111666666Y-87907200D02*
X111571428Y-87954819D01*
X111571428Y-87954819D02*
X111190476Y-87954819D01*
X111190476Y-87954819D02*
X111190476Y-86954819D01*
X111190476Y-86954819D02*
X111523809Y-86954819D01*
X111523809Y-86954819D02*
X111619047Y-87002438D01*
X111619047Y-87002438D02*
X111666666Y-87050057D01*
X111666666Y-87050057D02*
X111714285Y-87145295D01*
X111714285Y-87145295D02*
X111714285Y-87240533D01*
X111714285Y-87240533D02*
X111666666Y-87335771D01*
X111666666Y-87335771D02*
X111619047Y-87383390D01*
X111619047Y-87383390D02*
X111523809Y-87431009D01*
X111523809Y-87431009D02*
X111190476Y-87431009D01*
X112714285Y-87954819D02*
X112142857Y-87954819D01*
X112428571Y-87954819D02*
X112428571Y-86954819D01*
X112428571Y-86954819D02*
X112333333Y-87097676D01*
X112333333Y-87097676D02*
X112238095Y-87192914D01*
X112238095Y-87192914D02*
X112142857Y-87240533D01*
X102238095Y-85454819D02*
X102238095Y-86264342D01*
X102238095Y-86264342D02*
X102285714Y-86359580D01*
X102285714Y-86359580D02*
X102333333Y-86407200D01*
X102333333Y-86407200D02*
X102428571Y-86454819D01*
X102428571Y-86454819D02*
X102619047Y-86454819D01*
X102619047Y-86454819D02*
X102714285Y-86407200D01*
X102714285Y-86407200D02*
X102761904Y-86359580D01*
X102761904Y-86359580D02*
X102809523Y-86264342D01*
X102809523Y-86264342D02*
X102809523Y-85454819D01*
X103809523Y-86454819D02*
X103238095Y-86454819D01*
X103523809Y-86454819D02*
X103523809Y-85454819D01*
X103523809Y-85454819D02*
X103428571Y-85597676D01*
X103428571Y-85597676D02*
X103333333Y-85692914D01*
X103333333Y-85692914D02*
X103238095Y-85740533D01*
X106166666Y-86454819D02*
X106166666Y-87169104D01*
X106166666Y-87169104D02*
X106119047Y-87311961D01*
X106119047Y-87311961D02*
X106023809Y-87407200D01*
X106023809Y-87407200D02*
X105880952Y-87454819D01*
X105880952Y-87454819D02*
X105785714Y-87454819D01*
X106595238Y-86550057D02*
X106642857Y-86502438D01*
X106642857Y-86502438D02*
X106738095Y-86454819D01*
X106738095Y-86454819D02*
X106976190Y-86454819D01*
X106976190Y-86454819D02*
X107071428Y-86502438D01*
X107071428Y-86502438D02*
X107119047Y-86550057D01*
X107119047Y-86550057D02*
X107166666Y-86645295D01*
X107166666Y-86645295D02*
X107166666Y-86740533D01*
X107166666Y-86740533D02*
X107119047Y-86883390D01*
X107119047Y-86883390D02*
X106547619Y-87454819D01*
X106547619Y-87454819D02*
X107166666Y-87454819D01*
D11*
%TO.C,J1*%
X71500000Y-80200000D02*
X74000000Y-80200000D01*
X71500000Y-85400000D02*
X71500000Y-80200000D01*
X74000000Y-79700000D02*
X76600000Y-79700000D01*
X74000000Y-80200000D02*
X74000000Y-79700000D01*
X74000000Y-85400000D02*
X71500000Y-85400000D01*
X74000000Y-85900000D02*
X74000000Y-85400000D01*
X74600000Y-85900000D02*
X74000000Y-85900000D01*
X74600000Y-85900000D02*
X74600000Y-87900000D01*
X78600000Y-85900000D02*
X78600000Y-87900000D01*
X80600000Y-79700000D02*
X88700000Y-79700000D01*
X83600000Y-85900000D02*
X78600000Y-85900000D01*
X88700000Y-79700000D02*
X88700000Y-85900000D01*
X88700000Y-85900000D02*
X88100000Y-85900000D01*
%TO.C,R1*%
X99167224Y-79977500D02*
X98657776Y-79977500D01*
X99167224Y-81022500D02*
X98657776Y-81022500D01*
%TO.C,RV1*%
X77465000Y-93920000D02*
X77465000Y-92080000D01*
X77980000Y-89640000D02*
X84185000Y-89640000D01*
X84185000Y-89640000D02*
X84185000Y-91770000D01*
X84185000Y-94230000D02*
X84185000Y-96360000D01*
X84185000Y-96360000D02*
X77980000Y-96360000D01*
%TO.C,C6*%
X100491233Y-96490000D02*
X100783767Y-96490000D01*
X100491233Y-97510000D02*
X100783767Y-97510000D01*
%TO.C,C1*%
X101580000Y-82515000D02*
X101580000Y-80985000D01*
X103420000Y-80985000D02*
X103420000Y-82515000D01*
%TO.C,C2*%
X99008767Y-82490000D02*
X98716233Y-82490000D01*
X99008767Y-83510000D02*
X98716233Y-83510000D01*
%TO.C,RV2*%
X77465000Y-101570000D02*
X77465000Y-99730000D01*
X77980000Y-97290000D02*
X84185000Y-97290000D01*
X84185000Y-97290000D02*
X84185000Y-99420000D01*
X84185000Y-101880000D02*
X84185000Y-104010000D01*
X84185000Y-104010000D02*
X77980000Y-104010000D01*
%TO.C,R2*%
X103977500Y-95157776D02*
X103977500Y-95667224D01*
X105022500Y-95157776D02*
X105022500Y-95667224D01*
%TO.C,C3*%
X93485000Y-79580000D02*
X95015000Y-79580000D01*
X95015000Y-81420000D02*
X93485000Y-81420000D01*
%TO.C,R3*%
X94157776Y-82477500D02*
X94667224Y-82477500D01*
X94157776Y-83522500D02*
X94667224Y-83522500D01*
%TO.C,C7*%
X88080000Y-92515000D02*
X88080000Y-90985000D01*
X89920000Y-90985000D02*
X89920000Y-92515000D01*
%TO.C,U1*%
X91630000Y-88250000D02*
X91630000Y-89500000D01*
X91630000Y-91500000D02*
X91630000Y-92750000D01*
X91630000Y-92750000D02*
X101910000Y-92750000D01*
X101910000Y-88250000D02*
X91630000Y-88250000D01*
X101910000Y-92750000D02*
X101910000Y-88250000D01*
X91630000Y-89500000D02*
G75*
G02*
X91630000Y-91500000I0J-1000000D01*
G01*
%TO.C,J2*%
X104980000Y-78280000D02*
X112220000Y-78280000D01*
X104980000Y-86220000D02*
X104980000Y-78280000D01*
X110600000Y-86220000D02*
X110600000Y-78280000D01*
X112220000Y-78280000D02*
X112220000Y-83700000D01*
X112220000Y-84300000D02*
X112220000Y-86220000D01*
X112220000Y-86220000D02*
X104980000Y-86220000D01*
X112830000Y-84440000D02*
X112220000Y-84000000D01*
X112830000Y-83560000D01*
X112830000Y-84440000D01*
G36*
X112830000Y-84440000D02*
G01*
X112220000Y-84000000D01*
X112830000Y-83560000D01*
X112830000Y-84440000D01*
G37*
%TD*%
M02*
