%TF.GenerationSoftware,KiCad,Pcbnew,9.0.3-9.0.3-0~ubuntu24.04.1*%
%TF.CreationDate,2025-07-24T18:13:32+02:00*%
%TF.ProjectId,ampli_audio,616d706c-695f-4617-9564-696f2e6b6963,rev?*%
%TF.SameCoordinates,Original*%
%TF.FileFunction,Soldermask,Top*%
%TF.FilePolarity,Negative*%
%FSLAX46Y46*%
G04 Gerber Fmt 4.6, Leading zero omitted, Abs format (unit mm)*
G04 Created by KiCad (PCBNEW 9.0.3-9.0.3-0~ubuntu24.04.1) date 2025-07-24 18:13:32*
%MOMM*%
%LPD*%
G01*
G04 APERTURE LIST*
G04 Aperture macros list*
%AMRoundRect*
0 Rectangle with rounded corners*
0 $1 Rounding radius*
0 $2 $3 $4 $5 $6 $7 $8 $9 X,Y pos of 4 corners*
0 Add a 4 corners polygon primitive as box body*
4,1,4,$2,$3,$4,$5,$6,$7,$8,$9,$2,$3,0*
0 Add four circle primitives for the rounded corners*
1,1,$1+$1,$2,$3*
1,1,$1+$1,$4,$5*
1,1,$1+$1,$6,$7*
1,1,$1+$1,$8,$9*
0 Add four rect primitives between the rounded corners*
20,1,$1+$1,$2,$3,$4,$5,0*
20,1,$1+$1,$4,$5,$6,$7,0*
20,1,$1+$1,$6,$7,$8,$9,0*
20,1,$1+$1,$8,$9,$2,$3,0*%
G04 Aperture macros list end*
%ADD10C,1.700000*%
%ADD11R,2.200000X2.800000*%
%ADD12R,2.800000X2.800000*%
%ADD13RoundRect,0.237500X0.250000X0.237500X-0.250000X0.237500X-0.250000X-0.237500X0.250000X-0.237500X0*%
%ADD14RoundRect,0.250000X-1.000000X-0.750000X1.000000X-0.750000X1.000000X0.750000X-1.000000X0.750000X0*%
%ADD15RoundRect,0.237500X-0.300000X-0.237500X0.300000X-0.237500X0.300000X0.237500X-0.300000X0.237500X0*%
%ADD16C,1.600000*%
%ADD17RoundRect,0.237500X0.300000X0.237500X-0.300000X0.237500X-0.300000X-0.237500X0.300000X-0.237500X0*%
%ADD18RoundRect,0.100000X0.295000X-0.100000X0.295000X0.100000X-0.295000X0.100000X-0.295000X-0.100000X0*%
%ADD19RoundRect,0.162500X0.637500X-0.162500X0.637500X0.162500X-0.637500X0.162500X-0.637500X-0.162500X0*%
%ADD20RoundRect,0.237500X-0.237500X0.250000X-0.237500X-0.250000X0.237500X-0.250000X0.237500X0.250000X0*%
%ADD21RoundRect,0.237500X0.237500X-0.300000X0.237500X0.300000X-0.237500X0.300000X-0.237500X-0.300000X0*%
%ADD22RoundRect,0.237500X-0.250000X-0.237500X0.250000X-0.237500X0.250000X0.237500X-0.250000X0.237500X0*%
%ADD23RoundRect,0.100000X0.217500X0.100000X-0.217500X0.100000X-0.217500X-0.100000X0.217500X-0.100000X0*%
%ADD24RoundRect,0.250000X0.550000X-0.950000X0.550000X0.950000X-0.550000X0.950000X-0.550000X-0.950000X0*%
%ADD25O,1.600000X2.400000*%
%ADD26RoundRect,0.250001X0.949999X-0.949999X0.949999X0.949999X-0.949999X0.949999X-0.949999X-0.949999X0*%
%ADD27C,2.400000*%
G04 APERTURE END LIST*
D10*
%TO.C,J1*%
X77600000Y-82800000D03*
X84600000Y-82800000D03*
D11*
X78500000Y-79100000D03*
X76500000Y-86500000D03*
D12*
X85900000Y-86500000D03*
%TD*%
D13*
%TO.C,R1*%
X99825000Y-80500000D03*
X98000000Y-80500000D03*
%TD*%
D14*
%TO.C,RV1*%
X76500000Y-95150000D03*
X85150000Y-93000000D03*
X76500000Y-90850000D03*
%TD*%
D15*
%TO.C,C6*%
X99775000Y-97000000D03*
X101500000Y-97000000D03*
%TD*%
D16*
%TO.C,C1*%
X102500000Y-83000000D03*
X102500000Y-80500000D03*
%TD*%
D17*
%TO.C,C2*%
X99725000Y-83000000D03*
X98000000Y-83000000D03*
%TD*%
D14*
%TO.C,RV2*%
X76500000Y-102800000D03*
X85150000Y-100650000D03*
X76500000Y-98500000D03*
%TD*%
D18*
%TO.C,P1*%
X107500000Y-90500000D03*
X107500000Y-91300000D03*
X107500000Y-92100000D03*
X107500000Y-92900000D03*
X107500000Y-93700000D03*
X107500000Y-94500000D03*
X107500000Y-95300000D03*
X107500000Y-96100000D03*
X110040000Y-96100000D03*
X110040000Y-95300000D03*
X110040000Y-94500000D03*
X110040000Y-93700000D03*
X110040000Y-92900000D03*
X110040000Y-92100000D03*
X110040000Y-91300000D03*
X110040000Y-90500000D03*
D19*
X108770000Y-89350000D03*
X108770000Y-97250000D03*
%TD*%
D20*
%TO.C,R2*%
X104500000Y-94500000D03*
X104500000Y-96325000D03*
%TD*%
D21*
%TO.C,C5*%
X103500000Y-91225000D03*
X103500000Y-89500000D03*
%TD*%
D16*
%TO.C,C3*%
X93000000Y-80500000D03*
X95500000Y-80500000D03*
%TD*%
D22*
%TO.C,R3*%
X93500000Y-83000000D03*
X95325000Y-83000000D03*
%TD*%
D16*
%TO.C,C7*%
X89000000Y-93000000D03*
X89000000Y-90500000D03*
%TD*%
D23*
%TO.C,FB1*%
X109340000Y-87500000D03*
X108525000Y-87500000D03*
%TD*%
D24*
%TO.C,U1*%
X92960000Y-94310000D03*
D25*
X95500000Y-94310000D03*
X98040000Y-94310000D03*
X100580000Y-94310000D03*
X100580000Y-86690000D03*
X98040000Y-86690000D03*
X95500000Y-86690000D03*
X92960000Y-86690000D03*
%TD*%
D26*
%TO.C,J2*%
X108500000Y-84000000D03*
D27*
X108500000Y-80500000D03*
%TD*%
M02*
